<?xml version="1.0" encoding="UTF-8" standalone="no"?>
<svg xmlns="http://www.w3.org/2000/svg" width="420" height="280" viewBox="0 0 420 280">

<line x1="190.00" y1="170.00" x2="190.00" y2="168.75" stroke="#444" stroke-width="2.5" stroke-linecap="round" opacity="0.95"/>
<line x1="190.00" y1="200.00" x2="190.00" y2="183.75" stroke="#444" stroke-width="2.5" stroke-linecap="round" opacity="0.95"/>
<line x1="160.00" y1="150.00" x2="175.00" y2="158.75" stroke="#444" stroke-width="2.5" stroke-linecap="round" opacity="0.95"/>
<line x1="220.00" y1="150.00" x2="205.00" y2="158.75" stroke="#444" stroke-width="2.5" stroke-linecap="round" opacity="0.95"/>
<circle cx="190.00" cy="170.00" r="6.20" fill="#1179c9" stroke="#0b4f87" stroke-width="1"/>
<circle cx="187.80" cy="167.80" r="2.00" fill="rgba(255,255,255,0.55)" stroke="none" stroke-width="0"/>
<circle cx="160.00" cy="185.00" r="6.20" fill="#1179c9" stroke="#0b4f87" stroke-width="1"/>
<circle cx="157.80" cy="182.80" r="2.00" fill="rgba(255,255,255,0.55)" stroke="none" stroke-width="0"/>
<circle cx="220.00" cy="185.00" r="6.20" fill="#1179c9" stroke="#0b4f87" stroke-width="1"/>
<circle cx="217.80" cy="182.80" r="2.00" fill="rgba(255,255,255,0.55)" stroke="none" stroke-width="0"/>
<circle cx="190.00" cy="200.00" r="6.20" fill="#1179c9" stroke="#0b4f87" stroke-width="1"/>
<circle cx="187.80" cy="197.80" r="2.00" fill="rgba(255,255,255,0.55)" stroke="none" stroke-width="0"/>
<circle cx="190.00" cy="168.75" r="6.20" fill="#1179c9" stroke="#0b4f87" stroke-width="1"/>
<circle cx="187.80" cy="166.55" r="2.00" fill="rgba(255,255,255,0.55)" stroke="none" stroke-width="0"/>
<circle cx="190.00" cy="183.75" r="6.20" fill="#1179c9" stroke="#0b4f87" stroke-width="1"/>
<circle cx="187.80" cy="181.55" r="2.00" fill="rgba(255,255,255,0.55)" stroke="none" stroke-width="0"/>
<circle cx="205.00" cy="158.75" r="6.20" fill="#1179c9" stroke="#0b4f87" stroke-width="1"/>
<circle cx="202.80" cy="156.55" r="2.00" fill="rgba(255,255,255,0.55)" stroke="none" stroke-width="0"/>
<circle cx="175.00" cy="158.75" r="6.20" fill="#1179c9" stroke="#0b4f87" stroke-width="1"/>
<circle cx="172.80" cy="156.55" r="2.00" fill="rgba(255,255,255,0.55)" stroke="none" stroke-width="0"/>
<circle cx="190.00" cy="135.00" r="6.20" fill="#1179c9" stroke="#0b4f87" stroke-width="1"/>
<circle cx="187.80" cy="132.80" r="2.00" fill="rgba(255,255,255,0.55)" stroke="none" stroke-width="0"/>
<circle cx="160.00" cy="150.00" r="6.20" fill="#1179c9" stroke="#0b4f87" stroke-width="1"/>
<circle cx="157.80" cy="147.80" r="2.00" fill="rgba(255,255,255,0.55)" stroke="none" stroke-width="0"/>
<circle cx="220.00" cy="150.00" r="6.20" fill="#1179c9" stroke="#0b4f87" stroke-width="1"/>
<circle cx="217.80" cy="147.80" r="2.00" fill="rgba(255,255,255,0.55)" stroke="none" stroke-width="0"/>
<circle cx="190.00" cy="165.00" r="6.20" fill="#1179c9" stroke="#0b4f87" stroke-width="1"/>
<circle cx="187.80" cy="162.80" r="2.00" fill="rgba(255,255,255,0.55)" stroke="none" stroke-width="0"/>
</svg>
