<?xml version="1.0" encoding="UTF-8" standalone="no"?>
<svg xmlns="http://www.w3.org/2000/svg" width="420" height="280" viewBox="0 0 420 280">

<line x1="179.02" y1="48.95" x2="160.21" y2="59.20" stroke="#555" stroke-width="1.8" stroke-linecap="round" opacity="0.95"/>
<line x1="160.21" y1="69.55" x2="166.26" y2="70.11" stroke="#555" stroke-width="1.8" stroke-linecap="round" opacity="0.95"/>
<line x1="294.66" y1="96.91" x2="298.16" y2="124.35" stroke="#555" stroke-width="1.8" stroke-linecap="round" opacity="0.95"/>
<line x1="294.66" y1="96.91" x2="298.16" y2="114.04" stroke="#555" stroke-width="1.8" stroke-linecap="round" opacity="0.95"/>
<line x1="210.00" y1="44.90" x2="229.15" y2="46.02" stroke="#555" stroke-width="1.8" stroke-linecap="round" opacity="0.95"/>
<line x1="210.00" y1="45.00" x2="179.02" y2="52.57" stroke="#555" stroke-width="1.8" stroke-linecap="round" opacity="0.95"/>
<line x1="179.02" y1="52.57" x2="181.25" y2="55.41" stroke="#555" stroke-width="1.8" stroke-linecap="round" opacity="0.95"/>
<line x1="136.68" y1="89.29" x2="167.67" y2="83.71" stroke="#555" stroke-width="1.8" stroke-linecap="round" opacity="0.95"/>
<line x1="166.26" y1="70.11" x2="167.67" y2="83.71" stroke="#555" stroke-width="1.8" stroke-linecap="round" opacity="0.95"/>
<line x1="280.77" y1="85.09" x2="283.32" y2="104.53" stroke="#555" stroke-width="1.8" stroke-linecap="round" opacity="0.95"/>
<line x1="267.49" y1="64.37" x2="280.77" y2="85.09" stroke="#555" stroke-width="1.8" stroke-linecap="round" opacity="0.95"/>
<line x1="167.67" y1="83.71" x2="210.00" y2="81.67" stroke="#555" stroke-width="1.8" stroke-linecap="round" opacity="0.95"/>
<line x1="160.21" y1="59.20" x2="181.25" y2="55.41" stroke="#555" stroke-width="1.8" stroke-linecap="round" opacity="0.95"/>
<line x1="253.74" y1="91.78" x2="252.33" y2="110.11" stroke="#555" stroke-width="1.8" stroke-linecap="round" opacity="0.95"/>
<line x1="210.00" y1="135.88" x2="210.00" y2="235.00" stroke="#555" stroke-width="1.8" stroke-linecap="round" opacity="0.95"/>
<line x1="210.00" y1="74.72" x2="181.25" y2="73.33" stroke="#555" stroke-width="1.8" stroke-linecap="round" opacity="0.95"/>
<line x1="229.15" y1="46.02" x2="240.98" y2="48.95" stroke="#555" stroke-width="1.8" stroke-linecap="round" opacity="0.95"/>
<line x1="210.00" y1="45.00" x2="190.85" y2="46.02" stroke="#555" stroke-width="1.8" stroke-linecap="round" opacity="0.95"/>
<line x1="121.84" y1="124.35" x2="210.00" y2="235.00" stroke="#555" stroke-width="1.8" stroke-linecap="round" opacity="0.95"/>
<line x1="264.48" y1="105.70" x2="210.00" y2="235.00" stroke="#555" stroke-width="1.8" stroke-linecap="round" opacity="0.95"/>
<line x1="181.25" y1="73.33" x2="160.21" y2="69.55" stroke="#555" stroke-width="1.8" stroke-linecap="round" opacity="0.95"/>
<line x1="210.00" y1="135.88" x2="155.52" y2="132.69" stroke="#555" stroke-width="1.8" stroke-linecap="round" opacity="0.95"/>
<line x1="210.00" y1="81.67" x2="252.33" y2="83.71" stroke="#555" stroke-width="1.8" stroke-linecap="round" opacity="0.95"/>
<line x1="210.00" y1="94.34" x2="210.00" y2="112.15" stroke="#555" stroke-width="1.8" stroke-linecap="round" opacity="0.95"/>
<line x1="210.00" y1="81.67" x2="210.00" y2="102.51" stroke="#555" stroke-width="1.8" stroke-linecap="round" opacity="0.95"/>
<line x1="136.68" y1="104.53" x2="125.34" y2="96.91" stroke="#555" stroke-width="1.8" stroke-linecap="round" opacity="0.95"/>
<line x1="155.52" y1="132.69" x2="121.84" y2="124.35" stroke="#555" stroke-width="1.8" stroke-linecap="round" opacity="0.95"/>
<line x1="136.68" y1="104.53" x2="155.52" y2="132.69" stroke="#555" stroke-width="1.8" stroke-linecap="round" opacity="0.95"/>
<line x1="210.00" y1="45.00" x2="229.15" y2="46.02" stroke="#555" stroke-width="1.8" stroke-linecap="round" opacity="0.95"/>
<line x1="240.98" y1="52.57" x2="240.98" y2="48.95" stroke="#555" stroke-width="1.8" stroke-linecap="round" opacity="0.95"/>
<line x1="240.98" y1="48.95" x2="259.79" y2="59.20" stroke="#555" stroke-width="1.8" stroke-linecap="round" opacity="0.95"/>
<line x1="139.23" y1="85.09" x2="136.68" y2="104.53" stroke="#555" stroke-width="1.8" stroke-linecap="round" opacity="0.95"/>
<line x1="160.21" y1="69.55" x2="152.51" y2="64.37" stroke="#555" stroke-width="1.8" stroke-linecap="round" opacity="0.95"/>
<line x1="283.32" y1="104.53" x2="264.48" y2="105.70" stroke="#555" stroke-width="1.8" stroke-linecap="round" opacity="0.95"/>
<line x1="160.21" y1="69.55" x2="166.26" y2="91.78" stroke="#555" stroke-width="1.8" stroke-linecap="round" opacity="0.95"/>
<line x1="259.79" y1="69.55" x2="238.75" y2="73.33" stroke="#555" stroke-width="1.8" stroke-linecap="round" opacity="0.95"/>
<line x1="179.02" y1="52.57" x2="160.21" y2="69.55" stroke="#555" stroke-width="1.8" stroke-linecap="round" opacity="0.95"/>
<line x1="259.79" y1="69.55" x2="253.74" y2="70.11" stroke="#555" stroke-width="1.8" stroke-linecap="round" opacity="0.95"/>
<line x1="121.84" y1="124.35" x2="121.84" y2="114.04" stroke="#555" stroke-width="1.8" stroke-linecap="round" opacity="0.95"/>
<line x1="136.68" y1="104.53" x2="121.84" y2="114.04" stroke="#555" stroke-width="1.8" stroke-linecap="round" opacity="0.95"/>
<line x1="238.75" y1="73.33" x2="210.00" y2="74.72" stroke="#555" stroke-width="1.8" stroke-linecap="round" opacity="0.95"/>
<line x1="240.98" y1="52.57" x2="259.79" y2="69.55" stroke="#555" stroke-width="1.8" stroke-linecap="round" opacity="0.95"/>
<line x1="298.16" y1="124.35" x2="264.48" y2="132.69" stroke="#555" stroke-width="1.8" stroke-linecap="round" opacity="0.95"/>
<line x1="283.32" y1="104.53" x2="264.48" y2="132.69" stroke="#555" stroke-width="1.8" stroke-linecap="round" opacity="0.95"/>
<line x1="240.98" y1="52.57" x2="238.75" y2="55.41" stroke="#555" stroke-width="1.8" stroke-linecap="round" opacity="0.95"/>
<line x1="139.23" y1="85.09" x2="136.68" y2="89.29" stroke="#555" stroke-width="1.8" stroke-linecap="round" opacity="0.95"/>
<line x1="139.23" y1="76.81" x2="125.34" y2="96.91" stroke="#555" stroke-width="1.8" stroke-linecap="round" opacity="0.95"/>
<line x1="210.00" y1="67.55" x2="210.00" y2="112.15" stroke="#555" stroke-width="1.8" stroke-linecap="round" opacity="0.95"/>
<line x1="210.00" y1="112.15" x2="210.00" y2="102.51" stroke="#555" stroke-width="1.8" stroke-linecap="round" opacity="0.95"/>
<line x1="121.84" y1="114.04" x2="155.52" y2="105.70" stroke="#555" stroke-width="1.8" stroke-linecap="round" opacity="0.95"/>
<line x1="267.49" y1="64.37" x2="280.77" y2="76.81" stroke="#555" stroke-width="1.8" stroke-linecap="round" opacity="0.95"/>
<line x1="167.67" y1="110.11" x2="155.52" y2="105.70" stroke="#555" stroke-width="1.8" stroke-linecap="round" opacity="0.95"/>
<line x1="160.21" y1="69.55" x2="139.23" y2="76.81" stroke="#555" stroke-width="1.8" stroke-linecap="round" opacity="0.95"/>
<line x1="294.66" y1="96.91" x2="283.32" y2="89.29" stroke="#555" stroke-width="1.8" stroke-linecap="round" opacity="0.95"/>
<line x1="298.16" y1="124.35" x2="210.00" y2="235.00" stroke="#555" stroke-width="1.8" stroke-linecap="round" opacity="0.95"/>
<line x1="155.52" y1="105.70" x2="210.00" y2="102.51" stroke="#555" stroke-width="1.8" stroke-linecap="round" opacity="0.95"/>
<line x1="264.48" y1="132.69" x2="210.00" y2="135.88" stroke="#555" stroke-width="1.8" stroke-linecap="round" opacity="0.95"/>
<line x1="280.77" y1="85.09" x2="253.74" y2="91.78" stroke="#555" stroke-width="1.8" stroke-linecap="round" opacity="0.95"/>
<line x1="259.79" y1="69.55" x2="253.74" y2="91.78" stroke="#555" stroke-width="1.8" stroke-linecap="round" opacity="0.95"/>
<line x1="179.02" y1="52.57" x2="160.21" y2="59.20" stroke="#555" stroke-width="1.8" stroke-linecap="round" opacity="0.95"/>
<line x1="166.26" y1="91.78" x2="167.67" y2="83.71" stroke="#555" stroke-width="1.8" stroke-linecap="round" opacity="0.95"/>
<line x1="252.33" y1="110.11" x2="264.48" y2="105.70" stroke="#555" stroke-width="1.8" stroke-linecap="round" opacity="0.95"/>
<line x1="280.77" y1="85.09" x2="294.66" y2="96.91" stroke="#555" stroke-width="1.8" stroke-linecap="round" opacity="0.95"/>
<line x1="210.00" y1="74.72" x2="210.00" y2="67.55" stroke="#555" stroke-width="1.8" stroke-linecap="round" opacity="0.95"/>
<line x1="181.25" y1="55.41" x2="210.00" y2="54.02" stroke="#555" stroke-width="1.8" stroke-linecap="round" opacity="0.95"/>
<line x1="210.00" y1="44.90" x2="210.00" y2="54.02" stroke="#555" stroke-width="1.8" stroke-linecap="round" opacity="0.95"/>
<line x1="229.15" y1="55.50" x2="238.75" y2="73.33" stroke="#555" stroke-width="1.8" stroke-linecap="round" opacity="0.95"/>
<line x1="253.74" y1="91.78" x2="210.00" y2="94.34" stroke="#555" stroke-width="1.8" stroke-linecap="round" opacity="0.95"/>
<line x1="210.00" y1="94.34" x2="210.00" y2="81.67" stroke="#555" stroke-width="1.8" stroke-linecap="round" opacity="0.95"/>
<line x1="210.00" y1="54.02" x2="238.75" y2="55.41" stroke="#555" stroke-width="1.8" stroke-linecap="round" opacity="0.95"/>
<line x1="210.00" y1="102.51" x2="264.48" y2="105.70" stroke="#555" stroke-width="1.8" stroke-linecap="round" opacity="0.95"/>
<line x1="210.00" y1="56.62" x2="210.00" y2="74.72" stroke="#555" stroke-width="1.8" stroke-linecap="round" opacity="0.95"/>
<line x1="210.00" y1="54.02" x2="210.00" y2="67.55" stroke="#555" stroke-width="1.8" stroke-linecap="round" opacity="0.95"/>
<line x1="252.33" y1="110.11" x2="264.48" y2="132.69" stroke="#555" stroke-width="1.8" stroke-linecap="round" opacity="0.95"/>
<line x1="240.98" y1="52.57" x2="259.79" y2="59.20" stroke="#555" stroke-width="1.8" stroke-linecap="round" opacity="0.95"/>
<line x1="280.77" y1="85.09" x2="252.33" y2="110.11" stroke="#555" stroke-width="1.8" stroke-linecap="round" opacity="0.95"/>
<line x1="280.77" y1="85.09" x2="283.32" y2="89.29" stroke="#555" stroke-width="1.8" stroke-linecap="round" opacity="0.95"/>
<line x1="264.48" y1="105.70" x2="298.16" y2="114.04" stroke="#555" stroke-width="1.8" stroke-linecap="round" opacity="0.95"/>
<line x1="210.00" y1="67.55" x2="253.74" y2="70.11" stroke="#555" stroke-width="1.8" stroke-linecap="round" opacity="0.95"/>
<line x1="210.00" y1="112.15" x2="210.00" y2="135.88" stroke="#555" stroke-width="1.8" stroke-linecap="round" opacity="0.95"/>
<line x1="210.00" y1="94.34" x2="166.26" y2="91.78" stroke="#555" stroke-width="1.8" stroke-linecap="round" opacity="0.95"/>
<line x1="280.77" y1="76.81" x2="283.32" y2="104.53" stroke="#555" stroke-width="1.8" stroke-linecap="round" opacity="0.95"/>
<line x1="166.26" y1="91.78" x2="139.23" y2="85.09" stroke="#555" stroke-width="1.8" stroke-linecap="round" opacity="0.95"/>
<line x1="238.75" y1="55.41" x2="259.79" y2="59.20" stroke="#555" stroke-width="1.8" stroke-linecap="round" opacity="0.95"/>
<line x1="253.74" y1="70.11" x2="280.77" y2="76.81" stroke="#555" stroke-width="1.8" stroke-linecap="round" opacity="0.95"/>
<line x1="190.85" y1="55.50" x2="181.25" y2="73.33" stroke="#555" stroke-width="1.8" stroke-linecap="round" opacity="0.95"/>
<line x1="210.00" y1="74.72" x2="210.00" y2="94.34" stroke="#555" stroke-width="1.8" stroke-linecap="round" opacity="0.95"/>
<line x1="152.51" y1="64.37" x2="160.21" y2="59.20" stroke="#555" stroke-width="1.8" stroke-linecap="round" opacity="0.95"/>
<line x1="240.98" y1="48.95" x2="259.79" y2="69.55" stroke="#555" stroke-width="1.8" stroke-linecap="round" opacity="0.95"/>
<line x1="139.23" y1="85.09" x2="139.23" y2="76.81" stroke="#555" stroke-width="1.8" stroke-linecap="round" opacity="0.95"/>
<line x1="152.51" y1="64.37" x2="139.23" y2="85.09" stroke="#555" stroke-width="1.8" stroke-linecap="round" opacity="0.95"/>
<line x1="240.98" y1="48.95" x2="238.75" y2="55.41" stroke="#555" stroke-width="1.8" stroke-linecap="round" opacity="0.95"/>
<line x1="139.23" y1="85.09" x2="167.67" y2="110.11" stroke="#555" stroke-width="1.8" stroke-linecap="round" opacity="0.95"/>
<line x1="167.67" y1="110.11" x2="155.52" y2="132.69" stroke="#555" stroke-width="1.8" stroke-linecap="round" opacity="0.95"/>
<line x1="210.00" y1="67.55" x2="210.00" y2="81.67" stroke="#555" stroke-width="1.8" stroke-linecap="round" opacity="0.95"/>
<line x1="179.02" y1="48.95" x2="152.51" y2="64.37" stroke="#555" stroke-width="1.8" stroke-linecap="round" opacity="0.95"/>
<line x1="179.02" y1="52.57" x2="179.02" y2="48.95" stroke="#555" stroke-width="1.8" stroke-linecap="round" opacity="0.95"/>
<line x1="136.68" y1="104.53" x2="121.84" y2="124.35" stroke="#555" stroke-width="1.8" stroke-linecap="round" opacity="0.95"/>
<line x1="240.98" y1="52.57" x2="229.15" y2="55.50" stroke="#555" stroke-width="1.8" stroke-linecap="round" opacity="0.95"/>
<line x1="125.34" y1="96.91" x2="121.84" y2="114.04" stroke="#555" stroke-width="1.8" stroke-linecap="round" opacity="0.95"/>
<line x1="240.98" y1="52.57" x2="267.49" y2="64.37" stroke="#555" stroke-width="1.8" stroke-linecap="round" opacity="0.95"/>
<line x1="139.23" y1="76.81" x2="166.26" y2="70.11" stroke="#555" stroke-width="1.8" stroke-linecap="round" opacity="0.95"/>
<line x1="283.32" y1="104.53" x2="298.16" y2="124.35" stroke="#555" stroke-width="1.8" stroke-linecap="round" opacity="0.95"/>
<line x1="139.23" y1="85.09" x2="125.34" y2="96.91" stroke="#555" stroke-width="1.8" stroke-linecap="round" opacity="0.95"/>
<line x1="267.49" y1="64.37" x2="259.79" y2="59.20" stroke="#555" stroke-width="1.8" stroke-linecap="round" opacity="0.95"/>
<line x1="139.23" y1="76.81" x2="136.68" y2="104.53" stroke="#555" stroke-width="1.8" stroke-linecap="round" opacity="0.95"/>
<line x1="298.16" y1="124.35" x2="298.16" y2="114.04" stroke="#555" stroke-width="1.8" stroke-linecap="round" opacity="0.95"/>
<line x1="283.32" y1="104.53" x2="298.16" y2="114.04" stroke="#555" stroke-width="1.8" stroke-linecap="round" opacity="0.95"/>
<line x1="238.75" y1="73.33" x2="210.00" y2="94.34" stroke="#555" stroke-width="1.8" stroke-linecap="round" opacity="0.95"/>
<line x1="179.02" y1="48.95" x2="181.25" y2="55.41" stroke="#555" stroke-width="1.8" stroke-linecap="round" opacity="0.95"/>
<line x1="166.26" y1="70.11" x2="210.00" y2="67.55" stroke="#555" stroke-width="1.8" stroke-linecap="round" opacity="0.95"/>
<line x1="253.74" y1="91.78" x2="252.33" y2="83.71" stroke="#555" stroke-width="1.8" stroke-linecap="round" opacity="0.95"/>
<line x1="259.79" y1="69.55" x2="280.77" y2="85.09" stroke="#555" stroke-width="1.8" stroke-linecap="round" opacity="0.95"/>
<line x1="229.15" y1="55.50" x2="210.00" y2="56.62" stroke="#555" stroke-width="1.8" stroke-linecap="round" opacity="0.95"/>
<line x1="240.98" y1="52.57" x2="238.75" y2="73.33" stroke="#555" stroke-width="1.8" stroke-linecap="round" opacity="0.95"/>
<line x1="139.23" y1="76.81" x2="136.68" y2="89.29" stroke="#555" stroke-width="1.8" stroke-linecap="round" opacity="0.95"/>
<line x1="210.00" y1="56.62" x2="190.85" y2="55.50" stroke="#555" stroke-width="1.8" stroke-linecap="round" opacity="0.95"/>
<line x1="252.33" y1="110.11" x2="210.00" y2="112.15" stroke="#555" stroke-width="1.8" stroke-linecap="round" opacity="0.95"/>
<line x1="160.21" y1="59.20" x2="166.26" y2="70.11" stroke="#555" stroke-width="1.8" stroke-linecap="round" opacity="0.95"/>
<line x1="210.00" y1="112.15" x2="167.67" y2="110.11" stroke="#555" stroke-width="1.8" stroke-linecap="round" opacity="0.95"/>
<line x1="229.15" y1="55.50" x2="210.00" y2="74.72" stroke="#555" stroke-width="1.8" stroke-linecap="round" opacity="0.95"/>
<line x1="280.77" y1="76.81" x2="294.66" y2="96.91" stroke="#555" stroke-width="1.8" stroke-linecap="round" opacity="0.95"/>
<line x1="181.25" y1="73.33" x2="166.26" y2="91.78" stroke="#555" stroke-width="1.8" stroke-linecap="round" opacity="0.95"/>
<line x1="190.85" y1="55.50" x2="179.02" y2="52.57" stroke="#555" stroke-width="1.8" stroke-linecap="round" opacity="0.95"/>
<line x1="155.52" y1="105.70" x2="210.00" y2="235.00" stroke="#555" stroke-width="1.8" stroke-linecap="round" opacity="0.95"/>
<line x1="210.00" y1="45.00" x2="240.98" y2="52.57" stroke="#555" stroke-width="1.8" stroke-linecap="round" opacity="0.95"/>
<line x1="179.02" y1="52.57" x2="181.25" y2="73.33" stroke="#555" stroke-width="1.8" stroke-linecap="round" opacity="0.95"/>
<line x1="259.79" y1="59.20" x2="253.74" y2="70.11" stroke="#555" stroke-width="1.8" stroke-linecap="round" opacity="0.95"/>
<line x1="240.98" y1="48.95" x2="267.49" y2="64.37" stroke="#555" stroke-width="1.8" stroke-linecap="round" opacity="0.95"/>
<line x1="253.74" y1="70.11" x2="252.33" y2="83.71" stroke="#555" stroke-width="1.8" stroke-linecap="round" opacity="0.95"/>
<line x1="167.67" y1="110.11" x2="136.68" y2="104.53" stroke="#555" stroke-width="1.8" stroke-linecap="round" opacity="0.95"/>
<line x1="167.67" y1="110.11" x2="210.00" y2="135.88" stroke="#555" stroke-width="1.8" stroke-linecap="round" opacity="0.95"/>
<line x1="179.02" y1="48.95" x2="190.85" y2="46.02" stroke="#555" stroke-width="1.8" stroke-linecap="round" opacity="0.95"/>
<line x1="179.02" y1="48.95" x2="160.21" y2="69.55" stroke="#555" stroke-width="1.8" stroke-linecap="round" opacity="0.95"/>
<line x1="294.66" y1="96.91" x2="283.32" y2="104.53" stroke="#555" stroke-width="1.8" stroke-linecap="round" opacity="0.95"/>
<line x1="252.33" y1="83.71" x2="283.32" y2="89.29" stroke="#555" stroke-width="1.8" stroke-linecap="round" opacity="0.95"/>
<line x1="160.21" y1="69.55" x2="139.23" y2="85.09" stroke="#555" stroke-width="1.8" stroke-linecap="round" opacity="0.95"/>
<line x1="280.77" y1="76.81" x2="283.32" y2="89.29" stroke="#555" stroke-width="1.8" stroke-linecap="round" opacity="0.95"/>
<line x1="166.26" y1="91.78" x2="167.67" y2="110.11" stroke="#555" stroke-width="1.8" stroke-linecap="round" opacity="0.95"/>
<line x1="125.34" y1="96.91" x2="136.68" y2="89.29" stroke="#555" stroke-width="1.8" stroke-linecap="round" opacity="0.95"/>
<line x1="210.00" y1="45.00" x2="210.00" y2="56.62" stroke="#555" stroke-width="1.8" stroke-linecap="round" opacity="0.95"/>
<line x1="179.02" y1="52.57" x2="152.51" y2="64.37" stroke="#555" stroke-width="1.8" stroke-linecap="round" opacity="0.95"/>
<line x1="210.00" y1="56.62" x2="210.00" y2="54.02" stroke="#555" stroke-width="1.8" stroke-linecap="round" opacity="0.95"/>
<line x1="283.32" y1="104.53" x2="252.33" y2="110.11" stroke="#555" stroke-width="1.8" stroke-linecap="round" opacity="0.95"/>
<line x1="280.77" y1="85.09" x2="280.77" y2="76.81" stroke="#555" stroke-width="1.8" stroke-linecap="round" opacity="0.95"/>
<line x1="267.49" y1="64.37" x2="259.79" y2="69.55" stroke="#555" stroke-width="1.8" stroke-linecap="round" opacity="0.95"/>
<line x1="152.51" y1="64.37" x2="139.23" y2="76.81" stroke="#555" stroke-width="1.8" stroke-linecap="round" opacity="0.95"/>
<line x1="259.79" y1="69.55" x2="280.77" y2="76.81" stroke="#555" stroke-width="1.8" stroke-linecap="round" opacity="0.95"/>
<line x1="125.34" y1="96.91" x2="121.84" y2="124.35" stroke="#555" stroke-width="1.8" stroke-linecap="round" opacity="0.95"/>
<line x1="136.68" y1="104.53" x2="155.52" y2="105.70" stroke="#555" stroke-width="1.8" stroke-linecap="round" opacity="0.95"/>
<line x1="190.85" y1="46.02" x2="210.00" y2="44.90" stroke="#555" stroke-width="1.8" stroke-linecap="round" opacity="0.95"/>
<line x1="238.75" y1="73.33" x2="253.74" y2="91.78" stroke="#555" stroke-width="1.8" stroke-linecap="round" opacity="0.95"/>
<circle cx="210.00" cy="45.00" r="4.00" fill="#1179c9" stroke="#0b4f87" stroke-width="0.9"/>
<circle cx="240.98" cy="52.57" r="4.00" fill="#1179c9" stroke="#0b4f87" stroke-width="0.9"/>
<circle cx="229.15" cy="55.50" r="4.00" fill="#1179c9" stroke="#0b4f87" stroke-width="0.9"/>
<circle cx="210.00" cy="56.62" r="4.00" fill="#1179c9" stroke="#0b4f87" stroke-width="0.9"/>
<circle cx="190.85" cy="55.50" r="4.00" fill="#1179c9" stroke="#0b4f87" stroke-width="0.9"/>
<circle cx="179.02" cy="52.57" r="4.00" fill="#1179c9" stroke="#0b4f87" stroke-width="0.9"/>
<circle cx="179.02" cy="48.95" r="4.00" fill="#1179c9" stroke="#0b4f87" stroke-width="0.9"/>
<circle cx="190.85" cy="46.02" r="4.00" fill="#1179c9" stroke="#0b4f87" stroke-width="0.9"/>
<circle cx="210.00" cy="44.90" r="4.00" fill="#1179c9" stroke="#0b4f87" stroke-width="0.9"/>
<circle cx="229.15" cy="46.02" r="4.00" fill="#1179c9" stroke="#0b4f87" stroke-width="0.9"/>
<circle cx="240.98" cy="48.95" r="4.00" fill="#1179c9" stroke="#0b4f87" stroke-width="0.9"/>
<circle cx="267.49" cy="64.37" r="4.00" fill="#1179c9" stroke="#0b4f87" stroke-width="0.9"/>
<circle cx="259.79" cy="69.55" r="4.00" fill="#1179c9" stroke="#0b4f87" stroke-width="0.9"/>
<circle cx="238.75" cy="73.33" r="4.00" fill="#1179c9" stroke="#0b4f87" stroke-width="0.9"/>
<circle cx="210.00" cy="74.72" r="4.00" fill="#1179c9" stroke="#0b4f87" stroke-width="0.9"/>
<circle cx="181.25" cy="73.33" r="4.00" fill="#1179c9" stroke="#0b4f87" stroke-width="0.9"/>
<circle cx="160.21" cy="69.55" r="4.00" fill="#1179c9" stroke="#0b4f87" stroke-width="0.9"/>
<circle cx="152.51" cy="64.37" r="4.00" fill="#1179c9" stroke="#0b4f87" stroke-width="0.9"/>
<circle cx="160.21" cy="59.20" r="4.00" fill="#1179c9" stroke="#0b4f87" stroke-width="0.9"/>
<circle cx="181.25" cy="55.41" r="4.00" fill="#1179c9" stroke="#0b4f87" stroke-width="0.9"/>
<circle cx="210.00" cy="54.02" r="4.00" fill="#1179c9" stroke="#0b4f87" stroke-width="0.9"/>
<circle cx="238.75" cy="55.41" r="4.00" fill="#1179c9" stroke="#0b4f87" stroke-width="0.9"/>
<circle cx="259.79" cy="59.20" r="4.00" fill="#1179c9" stroke="#0b4f87" stroke-width="0.9"/>
<circle cx="280.77" cy="85.09" r="4.00" fill="#1179c9" stroke="#0b4f87" stroke-width="0.9"/>
<circle cx="253.74" cy="91.78" r="4.00" fill="#1179c9" stroke="#0b4f87" stroke-width="0.9"/>
<circle cx="210.00" cy="94.34" r="4.00" fill="#1179c9" stroke="#0b4f87" stroke-width="0.9"/>
<circle cx="166.26" cy="91.78" r="4.00" fill="#1179c9" stroke="#0b4f87" stroke-width="0.9"/>
<circle cx="139.23" cy="85.09" r="4.00" fill="#1179c9" stroke="#0b4f87" stroke-width="0.9"/>
<circle cx="139.23" cy="76.81" r="4.00" fill="#1179c9" stroke="#0b4f87" stroke-width="0.9"/>
<circle cx="166.26" cy="70.11" r="4.00" fill="#1179c9" stroke="#0b4f87" stroke-width="0.9"/>
<circle cx="210.00" cy="67.55" r="4.00" fill="#1179c9" stroke="#0b4f87" stroke-width="0.9"/>
<circle cx="253.74" cy="70.11" r="4.00" fill="#1179c9" stroke="#0b4f87" stroke-width="0.9"/>
<circle cx="280.77" cy="76.81" r="4.00" fill="#1179c9" stroke="#0b4f87" stroke-width="0.9"/>
<circle cx="294.66" cy="96.91" r="4.00" fill="#1179c9" stroke="#0b4f87" stroke-width="0.9"/>
<circle cx="283.32" cy="104.53" r="4.00" fill="#1179c9" stroke="#0b4f87" stroke-width="0.9"/>
<circle cx="252.33" cy="110.11" r="4.00" fill="#1179c9" stroke="#0b4f87" stroke-width="0.9"/>
<circle cx="210.00" cy="112.15" r="4.00" fill="#1179c9" stroke="#0b4f87" stroke-width="0.9"/>
<circle cx="167.67" cy="110.11" r="4.00" fill="#1179c9" stroke="#0b4f87" stroke-width="0.9"/>
<circle cx="136.68" cy="104.53" r="4.00" fill="#1179c9" stroke="#0b4f87" stroke-width="0.9"/>
<circle cx="125.34" cy="96.91" r="4.00" fill="#1179c9" stroke="#0b4f87" stroke-width="0.9"/>
<circle cx="136.68" cy="89.29" r="4.00" fill="#1179c9" stroke="#0b4f87" stroke-width="0.9"/>
<circle cx="167.67" cy="83.71" r="4.00" fill="#1179c9" stroke="#0b4f87" stroke-width="0.9"/>
<circle cx="210.00" cy="81.67" r="4.00" fill="#1179c9" stroke="#0b4f87" stroke-width="0.9"/>
<circle cx="252.33" cy="83.71" r="4.00" fill="#1179c9" stroke="#0b4f87" stroke-width="0.9"/>
<circle cx="283.32" cy="89.29" r="4.00" fill="#1179c9" stroke="#0b4f87" stroke-width="0.9"/>
<circle cx="298.16" cy="124.35" r="4.00" fill="#1179c9" stroke="#0b4f87" stroke-width="0.9"/>
<circle cx="264.48" cy="132.69" r="4.00" fill="#1179c9" stroke="#0b4f87" stroke-width="0.9"/>
<circle cx="210.00" cy="135.88" r="4.00" fill="#1179c9" stroke="#0b4f87" stroke-width="0.9"/>
<circle cx="155.52" cy="132.69" r="4.00" fill="#1179c9" stroke="#0b4f87" stroke-width="0.9"/>
<circle cx="121.84" cy="124.35" r="4.00" fill="#1179c9" stroke="#0b4f87" stroke-width="0.9"/>
<circle cx="121.84" cy="114.04" r="4.00" fill="#1179c9" stroke="#0b4f87" stroke-width="0.9"/>
<circle cx="155.52" cy="105.70" r="4.00" fill="#1179c9" stroke="#0b4f87" stroke-width="0.9"/>
<circle cx="210.00" cy="102.51" r="4.00" fill="#1179c9" stroke="#0b4f87" stroke-width="0.9"/>
<circle cx="264.48" cy="105.70" r="4.00" fill="#1179c9" stroke="#0b4f87" stroke-width="0.9"/>
<circle cx="298.16" cy="114.04" r="4.00" fill="#1179c9" stroke="#0b4f87" stroke-width="0.9"/>
<circle cx="210.00" cy="235.00" r="4.00" fill="#1179c9" stroke="#0b4f87" stroke-width="0.9"/>
<circle cx="210" cy="140" r="95" fill="none" stroke="#777" stroke-width="1" opacity="0.35"/>
</svg>
