<?xml version="1.0" encoding="UTF-8" standalone="no"?><!DOCTYPE svg PUBLIC "-//W3C//DTD SVG 1.1//EN" "http://www.w3.org/Graphics/SVG/1.1/DTD/svg11.dtd"><svg width="100%" height="100%" viewBox="0 0 230 1675" version="1.1" xmlns="http://www.w3.org/2000/svg" xmlns:xlink="http://www.w3.org/1999/xlink" xml:space="preserve" xmlns:serif="http://www.serif.com/" style="fill-rule:evenodd;clip-rule:evenodd;stroke-linejoin:round;stroke-miterlimit:2;"><g><g><path d="M1741.667,-100l-0,1875l-1875,-0l0,-1875l1875,0Z" style="fill:#fff;fill-rule:nonzero;"/><path d="M228.175,-2.354l-0,1677.254l-230.775,0l0,-1677.254l230.775,0Z" style="fill:url(#_Linear1);"/></g><g><path d="M76.317,1510.596l0,4.121l-78.917,0l0,-4.121l78.917,0Z" style="fill-rule:nonzero;"/><path d="M45.404,1592.258l0,3.092l-48.004,0l0,-3.092l48.004,0Z" style="fill-rule:nonzero;"/><path d="M38.621,1609.242l0,1.546l-41.221,0l0,-1.546l41.221,0Z" style="fill-rule:nonzero;"/><path d="M38.621,1625.467l0,1.546l-41.221,0l0,-1.546l41.221,0Z" style="fill-rule:nonzero;"/><path d="M38.621,1641.708l0,1.546l-41.221,0l0,-1.546l41.221,0Z" style="fill-rule:nonzero;"/><path d="M38.621,1657.938l0,1.546l-41.221,0l0,-1.546l41.221,0Z" style="fill-rule:nonzero;"/><path d="M22.125,1617.362l0,1.546l-24.725,0l0,-1.546l24.725,0Z" style="fill-rule:nonzero;"/><path d="M22.125,1601.133l0,1.55l-24.725,0l0,-1.55l24.725,0Z" style="fill-rule:nonzero;"/><path d="M22.125,1633.604l0,1.546l-24.725,0l0,-1.546l24.725,0Z" style="fill-rule:nonzero;"/><path d="M22.125,1649.833l0,1.546l-24.725,0l0,-1.546l24.725,0Z" style="fill-rule:nonzero;"/><path d="M22.125,1666.042l0,1.546l-24.725,0l0,-1.546l24.725,0Z" style="fill-rule:nonzero;"/><path d="M38.621,1528.113l0,1.546l-41.221,0l0,-1.546l41.221,0Z" style="fill-rule:nonzero;"/><path d="M38.621,1544.354l0,1.546l-41.221,0l0,-1.546l41.221,0Z" style="fill-rule:nonzero;"/><path d="M38.621,1560.579l0,1.546l-41.221,0l0,-1.546l41.221,0Z" style="fill-rule:nonzero;"/><path d="M38.621,1576.792l0,1.546l-41.221,0l0,-1.546l41.221,0Z" style="fill-rule:nonzero;"/><path d="M22.125,1536.229l0,1.546l-24.725,0l0,-1.546l24.725,0Z" style="fill-rule:nonzero;"/><path d="M22.125,1519.988l0,1.546l-24.725,0l0,-1.546l24.725,0Z" style="fill-rule:nonzero;"/><path d="M22.125,1552.458l0,1.546l-24.725,0l0,-1.546l24.725,0Z" style="fill-rule:nonzero;"/><path d="M22.125,1568.683l0,1.546l-24.725,0l0,-1.546l24.725,0Z" style="fill-rule:nonzero;"/><path d="M22.125,1584.908l0,1.546l-24.725,0l0,-1.546l24.725,0Z" style="fill-rule:nonzero;"/><path d="M76.317,1348.329l0,4.121l-78.917,0l0,-4.121l78.917,0Z" style="fill-rule:nonzero;"/><path d="M45.404,1429.963l0,3.096l-48.004,0l0,-3.096l48.004,0Z" style="fill-rule:nonzero;"/><path d="M38.621,1446.979l0,1.546l-41.221,0l0,-1.546l41.221,0Z" style="fill-rule:nonzero;"/><path d="M38.621,1463.204l0,1.546l-41.221,0l0,-1.546l41.221,0Z" style="fill-rule:nonzero;"/><path d="M38.621,1479.429l0,1.55l-41.221,0l0,-1.55l41.221,0Z" style="fill-rule:nonzero;"/><path d="M38.621,1495.658l0,1.546l-41.221,0l0,-1.546l41.221,0Z" style="fill-rule:nonzero;"/><path d="M22.125,1455.1l0,1.546l-24.725,0l0,-1.546l24.725,0Z" style="fill-rule:nonzero;"/><path d="M22.125,1438.871l0,1.546l-24.725,0l0,-1.546l24.725,0Z" style="fill-rule:nonzero;"/><path d="M22.125,1471.325l0,1.546l-24.725,0l0,-1.546l24.725,0Z" style="fill-rule:nonzero;"/><path d="M22.125,1487.554l0,1.546l-24.725,0l0,-1.546l24.725,0Z" style="fill-rule:nonzero;"/><path d="M22.125,1503.779l0,1.546l-24.725,0l0,-1.546l24.725,0Z" style="fill-rule:nonzero;"/><path d="M38.621,1365.846l0,1.546l-41.221,0l0,-1.546l41.221,0Z" style="fill-rule:nonzero;"/><path d="M38.621,1382.071l0,1.546l-41.221,0l0,-1.546l41.221,0Z" style="fill-rule:nonzero;"/><path d="M38.621,1398.3l0,1.546l-41.221,0l0,-1.546l41.221,0Z" style="fill-rule:nonzero;"/><path d="M38.621,1414.525l0,1.546l-41.221,0l0,-1.546l41.221,0Z" style="fill-rule:nonzero;"/><path d="M22.125,1373.95l0,1.55l-24.725,0l0,-1.55l24.725,0Z" style="fill-rule:nonzero;"/><path d="M22.125,1357.725l0,1.546l-24.725,0l0,-1.546l24.725,0Z" style="fill-rule:nonzero;"/><path d="M22.125,1390.179l0,1.546l-24.725,0l0,-1.546l24.725,0Z" style="fill-rule:nonzero;"/><path d="M22.125,1406.404l0,1.546l-24.725,0l0,-1.546l24.725,0Z" style="fill-rule:nonzero;"/><path d="M22.125,1422.629l0,1.546l-24.725,0l0,-1.546l24.725,0Z" style="fill-rule:nonzero;"/><path d="M76.317,1186.05l0,4.125l-78.917,0l0,-4.125l78.917,0Z" style="fill-rule:nonzero;"/><path d="M45.404,1267.7l0,3.092l-48.004,0l0,-3.092l48.004,0Z" style="fill-rule:nonzero;"/><path d="M38.621,1284.696l0,1.546l-41.221,0l0,-1.546l41.221,0Z" style="fill-rule:nonzero;"/><path d="M38.621,1300.921l0,1.546l-41.221,0l0,-1.546l41.221,0Z" style="fill-rule:nonzero;"/><path d="M38.621,1317.15l0,1.546l-41.221,0l0,-1.546l41.221,0Z" style="fill-rule:nonzero;"/><path d="M38.621,1333.375l0,1.546l-41.221,0l0,-1.546l41.221,0Z" style="fill-rule:nonzero;"/><path d="M22.125,1292.817l0,1.546l-24.725,0l0,-1.546l24.725,0Z" style="fill-rule:nonzero;"/><path d="M22.125,1276.592l0,1.546l-24.725,0l0,-1.546l24.725,0Z" style="fill-rule:nonzero;"/><path d="M22.125,1309.046l0,1.546l-24.725,0l0,-1.546l24.725,0Z" style="fill-rule:nonzero;"/><path d="M22.125,1325.271l0,1.55l-24.725,0l0,-1.55l24.725,0Z" style="fill-rule:nonzero;"/><path d="M22.125,1341.496l0,1.546l-24.725,0l0,-1.546l24.725,0Z" style="fill-rule:nonzero;"/><path d="M38.621,1203.562l0,1.546l-41.221,0l0,-1.546l41.221,0Z" style="fill-rule:nonzero;"/><path d="M38.621,1219.792l0,1.546l-41.221,0l0,-1.546l41.221,0Z" style="fill-rule:nonzero;"/><path d="M38.621,1236.017l0,1.546l-41.221,0l0,-1.546l41.221,0Z" style="fill-rule:nonzero;"/><path d="M38.621,1252.246l0,1.546l-41.221,0l0,-1.546l41.221,0Z" style="fill-rule:nonzero;"/><path d="M22.125,1211.671l0,1.546l-24.725,0l0,-1.546l24.725,0Z" style="fill-rule:nonzero;"/><path d="M22.125,1195.442l0,1.546l-24.725,0l0,-1.546l24.725,0Z" style="fill-rule:nonzero;"/><path d="M22.125,1227.896l0,1.546l-24.725,0l0,-1.546l24.725,0Z" style="fill-rule:nonzero;"/><path d="M22.125,1244.142l0,1.546l-24.725,0l0,-1.546l24.725,0Z" style="fill-rule:nonzero;"/><path d="M22.125,1260.362l0,1.546l-24.725,0l0,-1.546l24.725,0Z" style="fill-rule:nonzero;"/><path d="M76.317,1023.771l0,4.121l-78.917,0l0,-4.121l78.917,0Z" style="fill-rule:nonzero;"/><path d="M45.404,1105.417l0,3.092l-48.004,0l0,-3.092l48.004,0Z" style="fill-rule:nonzero;"/><path d="M38.621,1122.417l0,1.546l-41.221,0l0,-1.546l41.221,0Z" style="fill-rule:nonzero;"/><path d="M38.621,1138.658l0,1.546l-41.221,0l0,-1.546l41.221,0Z" style="fill-rule:nonzero;"/><path d="M38.621,1154.883l0,1.546l-41.221,0l0,-1.546l41.221,0Z" style="fill-rule:nonzero;"/><path d="M38.621,1171.113l0,1.546l-41.221,0l0,-1.546l41.221,0Z" style="fill-rule:nonzero;"/><path d="M22.125,1130.537l0,1.546l-24.725,0l0,-1.546l24.725,0Z" style="fill-rule:nonzero;"/><path d="M22.125,1114.312l0,1.546l-24.725,0l0,-1.546l24.725,0Z" style="fill-rule:nonzero;"/><path d="M22.125,1146.767l0,1.546l-24.725,0l0,-1.546l24.725,0Z" style="fill-rule:nonzero;"/><path d="M22.125,1162.992l0,1.546l-24.725,0l0,-1.546l24.725,0Z" style="fill-rule:nonzero;"/><path d="M22.125,1179.217l0,1.546l-24.725,0l0,-1.546l24.725,0Z" style="fill-rule:nonzero;"/><path d="M38.621,1041.283l0,1.546l-41.221,0l0,-1.546l41.221,0Z" style="fill-rule:nonzero;"/><path d="M38.621,1057.512l0,1.546l-41.221,0l0,-1.546l41.221,0Z" style="fill-rule:nonzero;"/><path d="M38.621,1073.738l0,1.546l-41.221,0l0,-1.546l41.221,0Z" style="fill-rule:nonzero;"/><path d="M38.621,1089.967l0,1.546l-41.221,0l0,-1.546l41.221,0Z" style="fill-rule:nonzero;"/><path d="M22.125,1049.404l0,1.55l-24.725,0l0,-1.55l24.725,0Z" style="fill-rule:nonzero;"/><path d="M22.125,1033.162l0,1.55l-24.725,0l0,-1.55l24.725,0Z" style="fill-rule:nonzero;"/><path d="M22.125,1065.633l0,1.546l-24.725,0l0,-1.546l24.725,0Z" style="fill-rule:nonzero;"/><path d="M22.125,1081.858l0,1.546l-24.725,0l0,-1.546l24.725,0Z" style="fill-rule:nonzero;"/><path d="M22.125,1098.083l0,1.546l-24.725,0l0,-1.546l24.725,0Z" style="fill-rule:nonzero;"/><path d="M76.317,861.488l0,4.125l-78.917,0l0,-4.125l78.917,0Z" style="fill-rule:nonzero;"/><path d="M45.404,943.15l0,3.096l-48.004,0l0,-3.096l48.004,0Z" style="fill-rule:nonzero;"/><path d="M38.621,960.154l0,1.546l-41.221,0l0,-1.546l41.221,0Z" style="fill-rule:nonzero;"/><path d="M38.621,976.379l0,1.546l-41.221,0l0,-1.546l41.221,0Z" style="fill-rule:nonzero;"/><path d="M38.621,992.608l0,1.546l-41.221,0l0,-1.546l41.221,0Z" style="fill-rule:nonzero;"/><path d="M38.621,1008.833l0,1.546l-41.221,0l0,-1.546l41.221,0Z" style="fill-rule:nonzero;"/><path d="M22.125,968.258l0,1.546l-24.725,0l0,-1.546l24.725,0Z" style="fill-rule:nonzero;"/><path d="M22.125,952.033l0,1.546l-24.725,0l0,-1.546l24.725,0Z" style="fill-rule:nonzero;"/><path d="M22.125,984.483l0,1.546l-24.725,0l0,-1.546l24.725,0Z" style="fill-rule:nonzero;"/><path d="M22.125,1000.708l0,1.55l-24.725,0l0,-1.55l24.725,0Z" style="fill-rule:nonzero;"/><path d="M22.125,1016.938l0,1.546l-24.725,0l0,-1.546l24.725,0Z" style="fill-rule:nonzero;"/><path d="M38.621,879.004l0,1.546l-41.221,0l0,-1.546l41.221,0Z" style="fill-rule:nonzero;"/><path d="M38.621,895.229l0,1.55l-41.221,0l0,-1.55l41.221,0Z" style="fill-rule:nonzero;"/><path d="M38.621,911.458l0,1.546l-41.221,0l0,-1.546l41.221,0Z" style="fill-rule:nonzero;"/><path d="M38.621,927.683l0,1.546l-41.221,0l0,-1.546l41.221,0Z" style="fill-rule:nonzero;"/><path d="M22.125,887.129l0,1.546l-24.725,0l0,-1.546l24.725,0Z" style="fill-rule:nonzero;"/><path d="M22.125,870.9l0,1.546l-24.725,0l0,-1.546l24.725,0Z" style="fill-rule:nonzero;"/><path d="M22.125,903.35l0,1.546l-24.725,0l0,-1.546l24.725,0Z" style="fill-rule:nonzero;"/><path d="M22.125,919.579l0,1.546l-24.725,0l0,-1.546l24.725,0Z" style="fill-rule:nonzero;"/><path d="M22.125,935.804l0,1.546l-24.725,0l0,-1.546l24.725,0Z" style="fill-rule:nonzero;"/><path d="M76.317,700.358l0,4.117l-78.917,0l0,-4.117l78.917,0Z" style="fill-rule:nonzero;"/><path d="M45.404,782.004l0,3.092l-48.004,0l0,-3.092l48.004,0Z" style="fill-rule:nonzero;"/><path d="M38.621,799.004l0,1.546l-41.221,0l0,-1.546l41.221,0Z" style="fill-rule:nonzero;"/><path d="M38.621,815.229l0,1.546l-41.221,0l0,-1.546l41.221,0Z" style="fill-rule:nonzero;"/><path d="M38.621,831.475l0,1.546l-41.221,0l0,-1.546l41.221,0Z" style="fill-rule:nonzero;"/><path d="M38.621,847.7l0,1.546l-41.221,0l0,-1.546l41.221,0Z" style="fill-rule:nonzero;"/><path d="M22.125,807.125l0,1.546l-24.725,0l0,-1.546l24.725,0Z" style="fill-rule:nonzero;"/><path d="M22.125,790.9l0,1.546l-24.725,0l0,-1.546l24.725,0Z" style="fill-rule:nonzero;"/><path d="M22.125,823.337l0,1.546l-24.725,0l0,-1.546l24.725,0Z" style="fill-rule:nonzero;"/><path d="M22.125,839.579l0,1.546l-24.725,0l0,-1.546l24.725,0Z" style="fill-rule:nonzero;"/><path d="M22.125,855.804l0,1.546l-24.725,0l0,-1.546l24.725,0Z" style="fill-rule:nonzero;"/><path d="M38.621,717.871l0,1.546l-41.221,0l0,-1.546l41.221,0Z" style="fill-rule:nonzero;"/><path d="M38.621,734.1l0,1.546l-41.221,0l0,-1.546l41.221,0Z" style="fill-rule:nonzero;"/><path d="M38.621,750.325l0,1.546l-41.221,0l0,-1.546l41.221,0Z" style="fill-rule:nonzero;"/><path d="M38.621,766.55l0,1.546l-41.221,0l0,-1.546l41.221,0Z" style="fill-rule:nonzero;"/><path d="M22.125,725.975l0,1.546l-24.725,0l0,-1.546l24.725,0Z" style="fill-rule:nonzero;"/><path d="M22.125,709.75l0,1.546l-24.725,0l0,-1.546l24.725,0Z" style="fill-rule:nonzero;"/><path d="M22.125,742.221l0,1.546l-24.725,0l0,-1.546l24.725,0Z" style="fill-rule:nonzero;"/><path d="M22.125,758.429l0,1.55l-24.725,0l0,-1.55l24.725,0Z" style="fill-rule:nonzero;"/><path d="M22.125,774.658l0,1.546l-24.725,0l0,-1.546l24.725,0Z" style="fill-rule:nonzero;"/><path d="M76.317,538.079l0,4.117l-78.917,0l0,-4.117l78.917,0Z" style="fill-rule:nonzero;"/><path d="M45.404,619.725l0,3.096l-48.004,0l0,-3.096l48.004,0Z" style="fill-rule:nonzero;"/><path d="M38.621,636.737l0,1.546l-41.221,0l0,-1.546l41.221,0Z" style="fill-rule:nonzero;"/><path d="M38.621,652.967l0,1.546l-41.221,0l0,-1.546l41.221,0Z" style="fill-rule:nonzero;"/><path d="M38.621,669.179l0,1.546l-41.221,0l0,-1.546l41.221,0Z" style="fill-rule:nonzero;"/><path d="M38.621,685.417l0,1.546l-41.221,0l0,-1.546l41.221,0Z" style="fill-rule:nonzero;"/><path d="M22.125,644.846l0,1.546l-24.725,0l0,-1.546l24.725,0Z" style="fill-rule:nonzero;"/><path d="M22.125,628.617l0,1.546l-24.725,0l0,-1.546l24.725,0Z" style="fill-rule:nonzero;"/><path d="M22.125,661.071l0,1.546l-24.725,0l0,-1.546l24.725,0Z" style="fill-rule:nonzero;"/><path d="M22.125,677.3l0,1.546l-24.725,0l0,-1.546l24.725,0Z" style="fill-rule:nonzero;"/><path d="M22.125,693.529l0,1.542l-24.725,0l0,-1.542l24.725,0Z" style="fill-rule:nonzero;"/><path d="M38.621,555.592l0,1.546l-41.221,0l0,-1.546l41.221,0Z" style="fill-rule:nonzero;"/><path d="M38.621,571.817l0,1.546l-41.221,0l0,-1.546l41.221,0Z" style="fill-rule:nonzero;"/><path d="M38.621,588.046l0,1.546l-41.221,0l0,-1.546l41.221,0Z" style="fill-rule:nonzero;"/><path d="M38.621,604.271l0,1.546l-41.221,0l0,-1.546l41.221,0Z" style="fill-rule:nonzero;"/><path d="M22.125,563.712l0,1.546l-24.725,0l0,-1.546l24.725,0Z" style="fill-rule:nonzero;"/><path d="M22.125,547.483l0,1.55l-24.725,0l0,-1.55l24.725,0Z" style="fill-rule:nonzero;"/><path d="M22.125,579.942l0,1.546l-24.725,0l0,-1.546l24.725,0Z" style="fill-rule:nonzero;"/><path d="M22.125,596.167l0,1.546l-24.725,0l0,-1.546l24.725,0Z" style="fill-rule:nonzero;"/><path d="M22.125,612.396l0,1.546l-24.725,0l0,-1.546l24.725,0Z" style="fill-rule:nonzero;"/><path d="M76.317,375.8l0,4.121l-78.917,0l0,-4.121l78.917,0Z" style="fill-rule:nonzero;"/><path d="M45.404,457.446l0,3.092l-48.004,0l0,-3.092l48.004,0Z" style="fill-rule:nonzero;"/><path d="M38.621,474.446l0,1.546l-41.221,0l0,-1.546l41.221,0Z" style="fill-rule:nonzero;"/><path d="M38.621,490.688l0,1.546l-41.221,0l0,-1.546l41.221,0Z" style="fill-rule:nonzero;"/><path d="M38.621,506.912l0,1.546l-41.221,0l0,-1.546l41.221,0Z" style="fill-rule:nonzero;"/><path d="M38.621,523.142l0,1.546l-41.221,0l0,-1.546l41.221,0Z" style="fill-rule:nonzero;"/><path d="M22.125,482.579l0,1.546l-24.725,0l0,-1.546l24.725,0Z" style="fill-rule:nonzero;"/><path d="M22.125,466.337l0,1.546l-24.725,0l0,-1.546l24.725,0Z" style="fill-rule:nonzero;"/><path d="M22.125,498.792l0,1.546l-24.725,0l0,-1.546l24.725,0Z" style="fill-rule:nonzero;"/><path d="M22.125,515.017l0,1.55l-24.725,0l0,-1.55l24.725,0Z" style="fill-rule:nonzero;"/><path d="M22.125,531.262l0,1.546l-24.725,0l0,-1.546l24.725,0Z" style="fill-rule:nonzero;"/><path d="M38.621,393.317l0,1.546l-41.221,0l0,-1.546l41.221,0Z" style="fill-rule:nonzero;"/><path d="M38.621,409.542l0,1.546l-41.221,0l0,-1.546l41.221,0Z" style="fill-rule:nonzero;"/><path d="M38.621,425.771l0,1.546l-41.221,0l0,-1.546l41.221,0Z" style="fill-rule:nonzero;"/><path d="M38.621,442.008l0,1.546l-41.221,0l0,-1.546l41.221,0Z" style="fill-rule:nonzero;"/><path d="M22.125,401.438l0,1.546l-24.725,0l0,-1.546l24.725,0Z" style="fill-rule:nonzero;"/><path d="M22.125,385.208l0,1.546l-24.725,0l0,-1.546l24.725,0Z" style="fill-rule:nonzero;"/><path d="M22.125,417.654l0,1.546l-24.725,0l0,-1.546l24.725,0Z" style="fill-rule:nonzero;"/><path d="M22.125,433.887l0,1.546l-24.725,0l0,-1.546l24.725,0Z" style="fill-rule:nonzero;"/><path d="M22.125,450.108l0,1.546l-24.725,0l0,-1.546l24.725,0Z" style="fill-rule:nonzero;"/><path d="M76.317,213.517l0,4.117l-78.917,0l0,-4.117l78.917,0Z" style="fill-rule:nonzero;"/><path d="M45.404,295.179l0,3.092l-48.004,0l0,-3.092l48.004,0Z" style="fill-rule:nonzero;"/><path d="M38.621,312.179l0,1.546l-41.221,0l0,-1.546l41.221,0Z" style="fill-rule:nonzero;"/><path d="M38.621,328.404l0,1.546l-41.221,0l0,-1.546l41.221,0Z" style="fill-rule:nonzero;"/><path d="M38.621,344.633l0,1.546l-41.221,0l0,-1.546l41.221,0Z" style="fill-rule:nonzero;"/><path d="M38.621,360.858l0,1.55l-41.221,0l0,-1.55l41.221,0Z" style="fill-rule:nonzero;"/><path d="M22.125,320.283l0,1.546l-24.725,0l0,-1.546l24.725,0Z" style="fill-rule:nonzero;"/><path d="M22.125,304.063l0,1.546l-24.725,0l0,-1.546l24.725,0Z" style="fill-rule:nonzero;"/><path d="M22.125,336.529l0,1.546l-24.725,0l0,-1.546l24.725,0Z" style="fill-rule:nonzero;"/><path d="M22.125,352.754l0,1.546l-24.725,0l0,-1.546l24.725,0Z" style="fill-rule:nonzero;"/><path d="M22.125,368.983l0,1.546l-24.725,0l0,-1.546l24.725,0Z" style="fill-rule:nonzero;"/><path d="M38.621,231.029l0,1.546l-41.221,0l0,-1.546l41.221,0Z" style="fill-rule:nonzero;"/><path d="M38.621,247.279l0,1.546l-41.221,0l0,-1.546l41.221,0Z" style="fill-rule:nonzero;"/><path d="M38.621,263.504l0,1.546l-41.221,0l0,-1.546l41.221,0Z" style="fill-rule:nonzero;"/><path d="M38.621,279.733l0,1.546l-41.221,0l0,-1.546l41.221,0Z" style="fill-rule:nonzero;"/><path d="M22.125,239.15l0,1.55l-24.725,0l0,-1.55l24.725,0Z" style="fill-rule:nonzero;"/><path d="M22.125,222.925l0,1.546l-24.725,0l0,-1.546l24.725,0Z" style="fill-rule:nonzero;"/><path d="M22.125,255.392l0,1.546l-24.725,0l0,-1.546l24.725,0Z" style="fill-rule:nonzero;"/><path d="M22.125,271.608l0,1.546l-24.725,0l0,-1.546l24.725,0Z" style="fill-rule:nonzero;"/><path d="M22.125,287.833l0,1.546l-24.725,0l0,-1.546l24.725,0Z" style="fill-rule:nonzero;"/><path d="M76.317,51.254l0,4.117l-78.917,0l0,-4.117l78.917,0Z" style="fill-rule:nonzero;"/><path d="M45.404,132.9l0,3.096l-48.004,0l0,-3.096l48.004,0Z" style="fill-rule:nonzero;"/><path d="M38.621,149.904l-0,1.546l-41.221,0l0,-1.546l41.221,0Z" style="fill-rule:nonzero;"/><path d="M38.621,166.129l0,1.546l-41.221,0l0,-1.546l41.221,0Z" style="fill-rule:nonzero;"/><path d="M38.621,182.358l0,1.546l-41.221,0l0,-1.546l41.221,0Z" style="fill-rule:nonzero;"/><path d="M38.621,198.575l0,1.546l-41.221,0l0,-1.546l41.221,0Z" style="fill-rule:nonzero;"/><path d="M22.125,158.021l0,1.546l-24.725,0l0,-1.546l24.725,0Z" style="fill-rule:nonzero;"/><path d="M22.125,141.796l0,1.546l-24.725,0l0,-1.546l24.725,0Z" style="fill-rule:nonzero;"/><path d="M22.125,174.246l0,1.546l-24.725,0l0,-1.546l24.725,0Z" style="fill-rule:nonzero;"/><path d="M22.125,190.475l0,1.546l-24.725,0l0,-1.546l24.725,0Z" style="fill-rule:nonzero;"/><path d="M22.125,206.7l0,1.546l-24.725,0l0,-1.546l24.725,0Z" style="fill-rule:nonzero;"/><path d="M38.621,68.767l0,1.546l-41.221,0l0,-1.546l41.221,0Z" style="fill-rule:nonzero;"/><path d="M38.621,84.992l0,1.55l-41.221,0l0,-1.55l41.221,0Z" style="fill-rule:nonzero;"/><path d="M38.621,101.221l0,1.546l-41.221,0l0,-1.546l41.221,0Z" style="fill-rule:nonzero;"/><path d="M38.621,117.446l0,1.55l-41.221,0l0,-1.55l41.221,0Z" style="fill-rule:nonzero;"/><path d="M22.125,76.883l0,1.546l-24.725,0l0,-1.546l24.725,0Z" style="fill-rule:nonzero;"/><path d="M22.125,60.65l0,1.546l-24.725,0l0,-1.546l24.725,0Z" style="fill-rule:nonzero;"/><path d="M22.125,93.112l0,1.546l-24.725,0l0,-1.546l24.725,0Z" style="fill-rule:nonzero;"/><path d="M22.125,109.342l0,1.546l-24.725,0l0,-1.546l24.725,0Z" style="fill-rule:nonzero;"/><path d="M22.125,125.571l0,1.546l-24.725,0l0,-1.546l24.725,0Z" style="fill-rule:nonzero;"/><path d="M228.175,1510.596l0,4.121l-78.917,0l0,-4.121l78.917,0Z" style="fill-rule:nonzero;"/><path d="M228.175,1592.258l0,3.092l-48.004,0l0,-3.092l48.004,0Z" style="fill-rule:nonzero;"/><path d="M228.175,1609.242l0,1.546l-41.217,0l0,-1.546l41.217,0Z" style="fill-rule:nonzero;"/><path d="M228.175,1625.467l0,1.546l-41.217,0l0,-1.546l41.217,0Z" style="fill-rule:nonzero;"/><path d="M228.175,1641.708l0,1.546l-41.217,0l0,-1.546l41.217,0Z" style="fill-rule:nonzero;"/><path d="M228.175,1657.938l0,1.546l-41.217,0l0,-1.546l41.217,0Z" style="fill-rule:nonzero;"/><path d="M228.175,1617.362l0,1.546l-24.721,0l0,-1.546l24.721,0Z" style="fill-rule:nonzero;"/><path d="M228.175,1601.133l0,1.55l-24.721,0l0,-1.55l24.721,0Z" style="fill-rule:nonzero;"/><path d="M228.175,1633.604l0,1.546l-24.721,0l0,-1.546l24.721,0Z" style="fill-rule:nonzero;"/><path d="M228.175,1649.833l0,1.546l-24.721,0l0,-1.546l24.721,0Z" style="fill-rule:nonzero;"/><path d="M228.175,1666.042l0,1.546l-24.721,0l0,-1.546l24.721,0Z" style="fill-rule:nonzero;"/><path d="M228.175,1528.113l0,1.546l-41.217,0l0,-1.546l41.217,0Z" style="fill-rule:nonzero;"/><path d="M228.175,1544.354l0,1.546l-41.217,0l0,-1.546l41.217,0Z" style="fill-rule:nonzero;"/><path d="M228.175,1560.579l0,1.546l-41.217,0l0,-1.546l41.217,0Z" style="fill-rule:nonzero;"/><path d="M228.175,1576.792l0,1.546l-41.217,0l0,-1.546l41.217,0Z" style="fill-rule:nonzero;"/><path d="M228.175,1536.229l0,1.546l-24.721,0l0,-1.546l24.721,0Z" style="fill-rule:nonzero;"/><path d="M228.175,1519.988l0,1.546l-24.721,0l0,-1.546l24.721,0Z" style="fill-rule:nonzero;"/><path d="M228.175,1552.458l0,1.546l-24.721,0l0,-1.546l24.721,0Z" style="fill-rule:nonzero;"/><path d="M228.175,1568.683l0,1.546l-24.721,0l0,-1.546l24.721,0Z" style="fill-rule:nonzero;"/><path d="M228.175,1584.908l0,1.546l-24.721,0l0,-1.546l24.721,0Z" style="fill-rule:nonzero;"/><path d="M228.175,1348.329l0,4.121l-78.917,0l0,-4.121l78.917,0Z" style="fill-rule:nonzero;"/><path d="M228.175,1429.963l0,3.096l-48.004,0l0,-3.096l48.004,0Z" style="fill-rule:nonzero;"/><path d="M228.175,1446.979l0,1.546l-41.217,0l0,-1.546l41.217,0Z" style="fill-rule:nonzero;"/><path d="M228.175,1463.204l0,1.546l-41.217,0l0,-1.546l41.217,0Z" style="fill-rule:nonzero;"/><path d="M228.175,1479.429l0,1.55l-41.217,0l0,-1.55l41.217,0Z" style="fill-rule:nonzero;"/><path d="M228.175,1495.658l0,1.546l-41.217,0l0,-1.546l41.217,0Z" style="fill-rule:nonzero;"/><path d="M228.175,1455.1l0,1.546l-24.721,0l0,-1.546l24.721,0Z" style="fill-rule:nonzero;"/><path d="M228.175,1438.871l0,1.546l-24.721,0l0,-1.546l24.721,0Z" style="fill-rule:nonzero;"/><path d="M228.175,1471.325l0,1.546l-24.721,0l0,-1.546l24.721,0Z" style="fill-rule:nonzero;"/><path d="M228.175,1487.554l0,1.546l-24.721,0l0,-1.546l24.721,0Z" style="fill-rule:nonzero;"/><path d="M228.175,1503.779l0,1.546l-24.721,0l0,-1.546l24.721,0Z" style="fill-rule:nonzero;"/><path d="M228.175,1365.846l0,1.546l-41.217,0l0,-1.546l41.217,0Z" style="fill-rule:nonzero;"/><path d="M228.175,1382.071l0,1.546l-41.217,0l0,-1.546l41.217,0Z" style="fill-rule:nonzero;"/><path d="M228.175,1398.3l0,1.546l-41.217,0l0,-1.546l41.217,0Z" style="fill-rule:nonzero;"/><path d="M228.175,1414.525l0,1.546l-41.217,0l0,-1.546l41.217,0Z" style="fill-rule:nonzero;"/><path d="M228.175,1373.95l0,1.55l-24.721,0l0,-1.55l24.721,0Z" style="fill-rule:nonzero;"/><path d="M228.175,1357.725l0,1.546l-24.721,0l0,-1.546l24.721,0Z" style="fill-rule:nonzero;"/><path d="M228.175,1390.179l0,1.546l-24.721,0l0,-1.546l24.721,0Z" style="fill-rule:nonzero;"/><path d="M228.175,1406.404l0,1.546l-24.721,0l0,-1.546l24.721,0Z" style="fill-rule:nonzero;"/><path d="M228.175,1422.629l0,1.546l-24.721,0l0,-1.546l24.721,0Z" style="fill-rule:nonzero;"/><path d="M228.175,1186.05l0,4.125l-78.917,0l0,-4.125l78.917,0Z" style="fill-rule:nonzero;"/><path d="M228.175,1267.7l0,3.092l-48.004,0l0,-3.092l48.004,0Z" style="fill-rule:nonzero;"/><path d="M228.175,1284.696l0,1.546l-41.217,0l0,-1.546l41.217,0Z" style="fill-rule:nonzero;"/><path d="M228.175,1300.921l0,1.546l-41.217,0l0,-1.546l41.217,0Z" style="fill-rule:nonzero;"/><path d="M228.175,1317.15l0,1.546l-41.217,0l0,-1.546l41.217,0Z" style="fill-rule:nonzero;"/><path d="M228.175,1333.375l0,1.546l-41.217,0l0,-1.546l41.217,0Z" style="fill-rule:nonzero;"/><path d="M228.175,1292.817l0,1.546l-24.721,0l0,-1.546l24.721,0Z" style="fill-rule:nonzero;"/><path d="M228.175,1276.592l0,1.546l-24.721,0l0,-1.546l24.721,0Z" style="fill-rule:nonzero;"/><path d="M228.175,1309.046l0,1.546l-24.721,0l0,-1.546l24.721,0Z" style="fill-rule:nonzero;"/><path d="M228.175,1325.271l0,1.55l-24.721,0l0,-1.55l24.721,0Z" style="fill-rule:nonzero;"/><path d="M228.175,1341.496l0,1.546l-24.721,0l0,-1.546l24.721,0Z" style="fill-rule:nonzero;"/><path d="M228.175,1203.562l0,1.546l-41.217,0l0,-1.546l41.217,0Z" style="fill-rule:nonzero;"/><path d="M228.175,1219.792l0,1.546l-41.217,0l0,-1.546l41.217,0Z" style="fill-rule:nonzero;"/><path d="M228.175,1236.017l0,1.546l-41.217,0l0,-1.546l41.217,0Z" style="fill-rule:nonzero;"/><path d="M228.175,1252.246l0,1.546l-41.217,0l0,-1.546l41.217,0Z" style="fill-rule:nonzero;"/><path d="M228.175,1211.671l0,1.546l-24.721,0l0,-1.546l24.721,0Z" style="fill-rule:nonzero;"/><path d="M228.175,1195.442l0,1.546l-24.721,0l0,-1.546l24.721,0Z" style="fill-rule:nonzero;"/><path d="M228.175,1227.896l0,1.546l-24.721,0l0,-1.546l24.721,0Z" style="fill-rule:nonzero;"/><path d="M228.175,1244.142l0,1.546l-24.721,0l0,-1.546l24.721,0Z" style="fill-rule:nonzero;"/><path d="M228.175,1260.362l0,1.546l-24.721,0l0,-1.546l24.721,0Z" style="fill-rule:nonzero;"/><path d="M228.175,1023.771l0,4.121l-78.917,0l0,-4.121l78.917,0Z" style="fill-rule:nonzero;"/><path d="M228.175,1105.417l0,3.092l-48.004,0l0,-3.092l48.004,0Z" style="fill-rule:nonzero;"/><path d="M228.175,1122.417l0,1.546l-41.217,0l0,-1.546l41.217,0Z" style="fill-rule:nonzero;"/><path d="M228.175,1138.658l0,1.546l-41.217,0l0,-1.546l41.217,0Z" style="fill-rule:nonzero;"/><path d="M228.175,1154.883l0,1.546l-41.217,0l0,-1.546l41.217,0Z" style="fill-rule:nonzero;"/><path d="M228.175,1171.113l0,1.546l-41.217,0l0,-1.546l41.217,0Z" style="fill-rule:nonzero;"/><path d="M228.175,1130.537l0,1.546l-24.721,0l0,-1.546l24.721,0Z" style="fill-rule:nonzero;"/><path d="M228.175,1114.312l0,1.546l-24.721,0l0,-1.546l24.721,0Z" style="fill-rule:nonzero;"/><path d="M228.175,1146.767l0,1.546l-24.721,0l0,-1.546l24.721,0Z" style="fill-rule:nonzero;"/><path d="M228.175,1162.992l0,1.546l-24.721,0l0,-1.546l24.721,0Z" style="fill-rule:nonzero;"/><path d="M228.175,1179.217l0,1.546l-24.721,0l0,-1.546l24.721,0Z" style="fill-rule:nonzero;"/><path d="M228.175,1041.283l0,1.546l-41.217,0l0,-1.546l41.217,0Z" style="fill-rule:nonzero;"/><path d="M228.175,1057.512l0,1.546l-41.217,0l0,-1.546l41.217,0Z" style="fill-rule:nonzero;"/><path d="M228.175,1073.738l0,1.546l-41.217,0l0,-1.546l41.217,0Z" style="fill-rule:nonzero;"/><path d="M228.175,1089.967l0,1.546l-41.217,0l0,-1.546l41.217,0Z" style="fill-rule:nonzero;"/><path d="M228.175,1049.404l0,1.55l-24.721,0l0,-1.55l24.721,0Z" style="fill-rule:nonzero;"/><path d="M228.175,1033.162l0,1.55l-24.721,0l0,-1.55l24.721,0Z" style="fill-rule:nonzero;"/><path d="M228.175,1065.633l0,1.546l-24.721,0l0,-1.546l24.721,0Z" style="fill-rule:nonzero;"/><path d="M228.175,1081.858l0,1.546l-24.721,0l0,-1.546l24.721,0Z" style="fill-rule:nonzero;"/><path d="M228.175,1098.083l0,1.546l-24.721,0l0,-1.546l24.721,0Z" style="fill-rule:nonzero;"/><path d="M228.175,861.488l0,4.125l-78.917,0l0,-4.125l78.917,0Z" style="fill-rule:nonzero;"/><path d="M228.175,943.15l0,3.096l-48.004,0l0,-3.096l48.004,0Z" style="fill-rule:nonzero;"/><path d="M228.175,960.154l0,1.546l-41.217,0l0,-1.546l41.217,0Z" style="fill-rule:nonzero;"/><path d="M228.175,976.379l0,1.546l-41.217,0l0,-1.546l41.217,0Z" style="fill-rule:nonzero;"/><path d="M228.175,992.608l0,1.546l-41.217,0l0,-1.546l41.217,0Z" style="fill-rule:nonzero;"/><path d="M228.175,1008.833l0,1.546l-41.217,0l0,-1.546l41.217,0Z" style="fill-rule:nonzero;"/><path d="M228.175,968.258l0,1.546l-24.721,0l0,-1.546l24.721,0Z" style="fill-rule:nonzero;"/><path d="M228.175,952.033l0,1.546l-24.721,0l0,-1.546l24.721,0Z" style="fill-rule:nonzero;"/><path d="M228.175,984.483l0,1.546l-24.721,0l0,-1.546l24.721,0Z" style="fill-rule:nonzero;"/><path d="M228.175,1000.708l0,1.55l-24.721,0l0,-1.55l24.721,0Z" style="fill-rule:nonzero;"/><path d="M228.175,1016.938l0,1.546l-24.721,0l0,-1.546l24.721,0Z" style="fill-rule:nonzero;"/><path d="M228.175,879.004l0,1.546l-41.217,0l0,-1.546l41.217,0Z" style="fill-rule:nonzero;"/><path d="M228.175,895.229l0,1.55l-41.217,0l0,-1.55l41.217,0Z" style="fill-rule:nonzero;"/><path d="M228.175,911.458l0,1.546l-41.217,0l0,-1.546l41.217,0Z" style="fill-rule:nonzero;"/><path d="M228.175,927.683l0,1.546l-41.217,0l0,-1.546l41.217,0Z" style="fill-rule:nonzero;"/><path d="M228.175,887.129l0,1.546l-24.721,0l0,-1.546l24.721,0Z" style="fill-rule:nonzero;"/><path d="M228.175,870.9l0,1.546l-24.721,0l0,-1.546l24.721,0Z" style="fill-rule:nonzero;"/><path d="M228.175,903.35l0,1.546l-24.721,0l0,-1.546l24.721,0Z" style="fill-rule:nonzero;"/><path d="M228.175,919.579l0,1.546l-24.721,0l0,-1.546l24.721,0Z" style="fill-rule:nonzero;"/><path d="M228.175,935.804l0,1.546l-24.721,0l0,-1.546l24.721,0Z" style="fill-rule:nonzero;"/><path d="M228.175,700.358l0,4.117l-78.917,0l0,-4.117l78.917,0Z" style="fill-rule:nonzero;"/><path d="M228.175,782.004l0,3.092l-48.004,0l0,-3.092l48.004,0Z" style="fill-rule:nonzero;"/><path d="M228.175,799.004l0,1.546l-41.217,0l0,-1.546l41.217,0Z" style="fill-rule:nonzero;"/><path d="M228.175,815.229l0,1.546l-41.217,0l0,-1.546l41.217,0Z" style="fill-rule:nonzero;"/><path d="M228.175,831.475l0,1.546l-41.217,0l0,-1.546l41.217,0Z" style="fill-rule:nonzero;"/><path d="M228.175,847.7l0,1.546l-41.217,0l0,-1.546l41.217,0Z" style="fill-rule:nonzero;"/><path d="M228.175,807.125l0,1.546l-24.721,0l0,-1.546l24.721,0Z" style="fill-rule:nonzero;"/><path d="M228.175,790.9l0,1.546l-24.721,0l0,-1.546l24.721,0Z" style="fill-rule:nonzero;"/><path d="M228.175,823.337l0,1.546l-24.721,0l0,-1.546l24.721,0Z" style="fill-rule:nonzero;"/><path d="M228.175,839.579l0,1.546l-24.721,0l0,-1.546l24.721,0Z" style="fill-rule:nonzero;"/><path d="M228.175,855.804l0,1.546l-24.721,0l0,-1.546l24.721,0Z" style="fill-rule:nonzero;"/><path d="M228.175,717.871l0,1.546l-41.217,0l0,-1.546l41.217,0Z" style="fill-rule:nonzero;"/><path d="M228.175,734.1l0,1.546l-41.217,0l0,-1.546l41.217,0Z" style="fill-rule:nonzero;"/><path d="M228.175,750.325l0,1.546l-41.217,0l0,-1.546l41.217,0Z" style="fill-rule:nonzero;"/><path d="M228.175,766.55l0,1.546l-41.217,0l0,-1.546l41.217,0Z" style="fill-rule:nonzero;"/><path d="M228.175,725.975l0,1.546l-24.721,0l0,-1.546l24.721,0Z" style="fill-rule:nonzero;"/><path d="M228.175,709.75l0,1.546l-24.721,0l0,-1.546l24.721,0Z" style="fill-rule:nonzero;"/><path d="M228.175,742.221l0,1.546l-24.721,0l0,-1.546l24.721,0Z" style="fill-rule:nonzero;"/><path d="M228.175,758.429l0,1.55l-24.721,0l0,-1.55l24.721,0Z" style="fill-rule:nonzero;"/><path d="M228.175,774.658l0,1.546l-24.721,0l0,-1.546l24.721,0Z" style="fill-rule:nonzero;"/><path d="M228.175,538.079l0,4.117l-78.917,0l0,-4.117l78.917,0Z" style="fill-rule:nonzero;"/><path d="M228.175,619.725l0,3.096l-48.004,0l0,-3.096l48.004,0Z" style="fill-rule:nonzero;"/><path d="M228.175,636.737l0,1.546l-41.217,0l0,-1.546l41.217,0Z" style="fill-rule:nonzero;"/><path d="M228.175,652.967l0,1.546l-41.217,0l0,-1.546l41.217,0Z" style="fill-rule:nonzero;"/><path d="M228.175,669.179l0,1.546l-41.217,0l0,-1.546l41.217,0Z" style="fill-rule:nonzero;"/><path d="M228.175,685.417l0,1.546l-41.217,0l0,-1.546l41.217,0Z" style="fill-rule:nonzero;"/><path d="M228.175,644.846l0,1.546l-24.721,0l0,-1.546l24.721,0Z" style="fill-rule:nonzero;"/><path d="M228.175,628.617l0,1.546l-24.721,0l0,-1.546l24.721,0Z" style="fill-rule:nonzero;"/><path d="M228.175,661.071l0,1.546l-24.721,0l0,-1.546l24.721,0Z" style="fill-rule:nonzero;"/><path d="M228.175,677.3l0,1.546l-24.721,0l0,-1.546l24.721,0Z" style="fill-rule:nonzero;"/><path d="M228.175,693.529l0,1.542l-24.721,0l0,-1.542l24.721,0Z" style="fill-rule:nonzero;"/><path d="M228.175,555.592l0,1.546l-41.217,0l0,-1.546l41.217,0Z" style="fill-rule:nonzero;"/><path d="M228.175,571.817l0,1.546l-41.217,0l0,-1.546l41.217,0Z" style="fill-rule:nonzero;"/><path d="M228.175,588.046l0,1.546l-41.217,0l0,-1.546l41.217,0Z" style="fill-rule:nonzero;"/><path d="M228.175,604.271l0,1.546l-41.217,0l0,-1.546l41.217,0Z" style="fill-rule:nonzero;"/><path d="M228.175,563.712l0,1.546l-24.721,0l0,-1.546l24.721,0Z" style="fill-rule:nonzero;"/><path d="M228.175,547.483l0,1.55l-24.721,0l0,-1.55l24.721,0Z" style="fill-rule:nonzero;"/><path d="M228.175,579.942l0,1.546l-24.721,0l0,-1.546l24.721,0Z" style="fill-rule:nonzero;"/><path d="M228.175,596.167l0,1.546l-24.721,0l0,-1.546l24.721,0Z" style="fill-rule:nonzero;"/><path d="M228.175,612.396l0,1.546l-24.721,0l0,-1.546l24.721,0Z" style="fill-rule:nonzero;"/><path d="M228.175,375.8l0,4.121l-78.917,0l0,-4.121l78.917,0Z" style="fill-rule:nonzero;"/><path d="M228.175,457.446l0,3.092l-48.004,0l0,-3.092l48.004,0Z" style="fill-rule:nonzero;"/><path d="M228.175,474.446l0,1.546l-41.217,0l0,-1.546l41.217,0Z" style="fill-rule:nonzero;"/><path d="M228.175,490.688l0,1.546l-41.217,0l0,-1.546l41.217,0Z" style="fill-rule:nonzero;"/><path d="M228.175,506.912l0,1.546l-41.217,0l0,-1.546l41.217,0Z" style="fill-rule:nonzero;"/><path d="M228.175,523.142l0,1.546l-41.217,0l0,-1.546l41.217,0Z" style="fill-rule:nonzero;"/><path d="M228.175,482.579l0,1.546l-24.721,0l0,-1.546l24.721,0Z" style="fill-rule:nonzero;"/><path d="M228.175,466.337l0,1.546l-24.721,0l0,-1.546l24.721,0Z" style="fill-rule:nonzero;"/><path d="M228.175,498.792l0,1.546l-24.721,0l0,-1.546l24.721,0Z" style="fill-rule:nonzero;"/><path d="M228.175,515.017l0,1.55l-24.721,0l0,-1.55l24.721,0Z" style="fill-rule:nonzero;"/><path d="M228.175,531.262l0,1.546l-24.721,0l0,-1.546l24.721,0Z" style="fill-rule:nonzero;"/><path d="M228.175,393.317l0,1.546l-41.217,0l0,-1.546l41.217,0Z" style="fill-rule:nonzero;"/><path d="M228.175,409.542l0,1.546l-41.217,0l0,-1.546l41.217,0Z" style="fill-rule:nonzero;"/><path d="M228.175,425.771l0,1.546l-41.217,0l0,-1.546l41.217,0Z" style="fill-rule:nonzero;"/><path d="M228.175,442.008l0,1.546l-41.217,0l0,-1.546l41.217,0Z" style="fill-rule:nonzero;"/><path d="M228.175,401.438l0,1.546l-24.721,0l0,-1.546l24.721,0Z" style="fill-rule:nonzero;"/><path d="M228.175,385.208l0,1.546l-24.721,0l0,-1.546l24.721,0Z" style="fill-rule:nonzero;"/><path d="M228.175,417.654l0,1.546l-24.721,0l0,-1.546l24.721,0Z" style="fill-rule:nonzero;"/><path d="M228.175,433.887l0,1.546l-24.721,0l0,-1.546l24.721,0Z" style="fill-rule:nonzero;"/><path d="M228.175,450.108l0,1.546l-24.721,0l0,-1.546l24.721,0Z" style="fill-rule:nonzero;"/><path d="M228.175,213.517l0,4.117l-78.917,0l0,-4.117l78.917,0Z" style="fill-rule:nonzero;"/><path d="M228.175,295.179l0,3.092l-48.004,0l0,-3.092l48.004,0Z" style="fill-rule:nonzero;"/><path d="M228.175,312.179l0,1.546l-41.217,0l0,-1.546l41.217,0Z" style="fill-rule:nonzero;"/><path d="M228.175,328.404l0,1.546l-41.217,0l0,-1.546l41.217,0Z" style="fill-rule:nonzero;"/><path d="M228.175,344.633l0,1.546l-41.217,0l0,-1.546l41.217,0Z" style="fill-rule:nonzero;"/><path d="M228.175,360.858l0,1.55l-41.217,0l0,-1.55l41.217,0Z" style="fill-rule:nonzero;"/><path d="M228.175,320.283l0,1.546l-24.721,0l0,-1.546l24.721,0Z" style="fill-rule:nonzero;"/><path d="M228.175,304.063l0,1.546l-24.721,0l0,-1.546l24.721,0Z" style="fill-rule:nonzero;"/><path d="M228.175,336.529l0,1.546l-24.721,0l0,-1.546l24.721,0Z" style="fill-rule:nonzero;"/><path d="M228.175,352.754l0,1.546l-24.721,0l0,-1.546l24.721,0Z" style="fill-rule:nonzero;"/><path d="M228.175,368.983l0,1.546l-24.721,0l0,-1.546l24.721,0Z" style="fill-rule:nonzero;"/><path d="M228.175,231.029l0,1.546l-41.217,0l0,-1.546l41.217,0Z" style="fill-rule:nonzero;"/><path d="M228.175,247.279l0,1.546l-41.217,0l0,-1.546l41.217,0Z" style="fill-rule:nonzero;"/><path d="M228.175,263.504l0,1.546l-41.217,0l0,-1.546l41.217,0Z" style="fill-rule:nonzero;"/><path d="M228.175,279.733l0,1.546l-41.217,0l0,-1.546l41.217,0Z" style="fill-rule:nonzero;"/><path d="M228.175,239.15l0,1.55l-24.721,0l0,-1.55l24.721,0Z" style="fill-rule:nonzero;"/><path d="M228.175,222.925l0,1.546l-24.721,0l0,-1.546l24.721,0Z" style="fill-rule:nonzero;"/><path d="M228.175,255.392l0,1.546l-24.721,0l0,-1.546l24.721,0Z" style="fill-rule:nonzero;"/><path d="M228.175,271.608l0,1.546l-24.721,0l0,-1.546l24.721,0Z" style="fill-rule:nonzero;"/><path d="M228.175,287.833l0,1.546l-24.721,0l0,-1.546l24.721,0Z" style="fill-rule:nonzero;"/><path d="M228.175,51.254l0,4.117l-78.917,0l0,-4.117l78.917,0Z" style="fill-rule:nonzero;"/><path d="M228.175,132.9l0,3.096l-48.004,0l0,-3.096l48.004,0Z" style="fill-rule:nonzero;"/><path d="M228.175,149.904l0,1.546l-41.217,0l0,-1.546l41.217,0Z" style="fill-rule:nonzero;"/><path d="M228.175,166.129l0,1.546l-41.217,0l0,-1.546l41.217,0Z" style="fill-rule:nonzero;"/><path d="M228.175,182.358l0,1.546l-41.217,0l0,-1.546l41.217,0Z" style="fill-rule:nonzero;"/><path d="M228.175,198.575l0,1.546l-41.217,0l0,-1.546l41.217,0Z" style="fill-rule:nonzero;"/><path d="M228.175,158.021l0,1.546l-24.721,0l0,-1.546l24.721,0Z" style="fill-rule:nonzero;"/><path d="M228.175,141.796l0,1.546l-24.721,0l0,-1.546l24.721,0Z" style="fill-rule:nonzero;"/><path d="M228.175,174.246l0,1.546l-24.721,0l0,-1.546l24.721,0Z" style="fill-rule:nonzero;"/><path d="M228.175,190.475l0,1.546l-24.721,0l0,-1.546l24.721,0Z" style="fill-rule:nonzero;"/><path d="M228.175,206.7l0,1.546l-24.721,0l0,-1.546l24.721,0Z" style="fill-rule:nonzero;"/><path d="M228.175,68.767l0,1.546l-41.217,0l0,-1.546l41.217,0Z" style="fill-rule:nonzero;"/><path d="M228.175,84.992l0,1.55l-41.217,0l0,-1.55l41.217,0Z" style="fill-rule:nonzero;"/><path d="M228.175,101.221l0,1.546l-41.217,0l0,-1.546l41.217,0Z" style="fill-rule:nonzero;"/><path d="M228.175,117.446l0,1.55l-41.217,0l0,-1.55l41.217,0Z" style="fill-rule:nonzero;"/><path d="M228.175,76.883l0,1.546l-24.721,0l0,-1.546l24.721,0Z" style="fill-rule:nonzero;"/><path d="M228.175,60.65l0,1.546l-24.721,0l0,-1.546l24.721,0Z" style="fill-rule:nonzero;"/><path d="M228.175,93.112l0,1.546l-24.721,0l0,-1.546l24.721,0Z" style="fill-rule:nonzero;"/><path d="M228.175,109.342l0,1.546l-24.721,0l0,-1.546l24.721,0Z" style="fill-rule:nonzero;"/><path d="M228.175,125.571l0,1.546l-24.721,0l0,-1.546l24.721,0Z" style="fill-rule:nonzero;"/><path d="M88.229,1553.525l0,53.242c0,0 -44.833,15.317 -57.612,24.329c-10.117,7.133 -33.45,36.492 -33.45,36.492l0,7.312l232.688,0l0,-7.312c0,0 -23.333,-29.358 -33.446,-36.492c-12.779,-9.013 -57.617,-24.329 -57.617,-24.329l0,-53.242c0,-13.963 -11.317,-25.283 -25.279,-25.283c-13.963,0 -25.283,11.321 -25.283,25.283Z" style="fill:url(#_Linear2);"/><path d="M87.717,1554.521l0,52.808c0,0 -44.467,15.192 -57.142,24.129c-10.029,7.071 -33.175,36.188 -33.175,36.188l0,7.254l230.775,0l0,-7.254c0,0 -23.146,-29.117 -33.175,-36.188c-12.671,-8.938 -57.137,-24.129 -57.137,-24.129l0,-52.808c0,-13.846 -11.225,-25.071 -25.075,-25.071c-13.846,0 -25.071,11.225 -25.071,25.071Z" style="fill:url(#_Linear3);"/><path d="M125.179,1553.229c0,6.833 -5.558,12.392 -12.392,12.392c-6.829,0 -12.387,-5.558 -12.387,-12.392c0,-6.833 5.558,-12.392 12.387,-12.392c6.833,0 12.392,5.558 12.392,12.392Z" style="fill:url(#_Radial4);"/><path d="M112.788,1542.504c5.925,0 10.725,4.804 10.725,10.725c0,5.925 -4.8,10.725 -10.725,10.725c-5.921,0 -10.721,-4.8 -10.721,-10.725c0,-5.921 4.8,-10.725 10.721,-10.725Z" style="fill:url(#_Radial5);"/><path d="M125.179,1626.242c0,6.833 -5.558,12.392 -12.392,12.392c-6.829,0 -12.387,-5.558 -12.387,-12.392c0,-6.833 5.558,-12.392 12.387,-12.392c6.833,0 12.392,5.558 12.392,12.392Z" style="fill:url(#_Radial6);"/><path d="M112.788,1615.517c5.925,0 10.725,4.804 10.725,10.725c0,5.921 -4.8,10.725 -10.725,10.725c-5.921,0 -10.721,-4.804 -10.721,-10.725c0,-5.921 4.8,-10.725 10.721,-10.725Z" style="fill:url(#_Radial7);"/></g><g><path d="M131.742,1522.792l0,-9.65l-34.1,0l0,7.333l-1.929,0c-0.579,-3.346 -1.483,-5.983 -2.575,-7.913l0,-2.317l38.604,0l0,-8.946l2.508,0l0,21.492l-2.508,0Z" style="fill-rule:nonzero;"/><path d="M132.45,1363.45c-13.708,-13.512 -21.362,-20.267 -28.504,-20.267c-5.146,0 -9.137,2.767 -9.137,8.942c0,3.733 2.317,7.079 5.404,9.592l-1.8,1.867c-3.408,-3.088 -6.05,-6.696 -6.05,-11.713c0,-7.337 4.571,-11.583 11.521,-11.583c8.171,0 16.021,7.463 28.117,18.854c-0.129,-2.254 -0.321,-4.633 -0.321,-6.883l0,-14.029l2.571,0l0,25.221l-1.8,0Z" style="fill-rule:nonzero;"/><path d="M127.237,1200.446c2.704,-2.446 5.275,-5.729 5.275,-11.388c0,-5.537 -3.604,-9.587 -9.071,-9.587c-5.663,0 -9.525,4.117 -9.525,14.346l-2.508,0c0,-9.521 -3.988,-12.867 -8.942,-12.867c-4.633,0 -7.658,3.279 -7.658,8.3c0,3.796 1.996,7.079 4.504,9.458l-1.929,1.671c-2.767,-2.829 -5.021,-6.371 -5.021,-11.129c0,-6.371 3.604,-11.258 9.908,-11.258c5.408,0 8.625,3.346 10.167,7.85l0.258,0c1.096,-5.088 4.892,-9.333 10.679,-9.333c7.146,0 11.65,5.471 11.65,12.55c0,6.563 -3.025,10.421 -5.792,13.058l-1.996,-1.671Z" style="fill-rule:nonzero;"/><path d="M119.517,1021.929l-15.054,0c-1.867,0 -5.213,-0.129 -7.079,-0.258l0,0.258c1.737,1.029 3.283,2.187 5.146,3.346l16.987,12.096l0,-15.442Zm2.446,-8.879l0,6.112l12.288,0l0,2.767l-12.288,0l0,18.917l-1.675,0l-27.15,-19.112l0,-2.571l26.379,0l0,-6.112l2.446,0Z" style="fill-rule:nonzero;"/><path d="M127.496,876.487c2.508,-2.446 5.017,-5.662 5.017,-11.258c0,-5.471 -4.438,-10.233 -11.067,-10.233c-6.625,0 -10.617,3.929 -10.617,10.037c0,3.154 1.096,5.212 2.767,7.658l-1.221,1.996l-19.238,-1.483l0,-18.979l2.508,0l0,16.408l14.863,1.288c-1.287,-2.125 -2.187,-4.313 -2.187,-7.338c0,-6.946 3.992,-12.546 12.996,-12.546c8.75,0 13.708,6.5 13.708,13.125c0,6.562 -2.9,10.296 -5.533,12.933l-1.996,-1.608Z" style="fill-rule:nonzero;"/><path d="M122.154,692.504c-5.921,0 -10.296,2.642 -10.296,8.875c0,2.896 1.675,6.629 6.179,9.975c8.687,-0.513 14.542,-3.854 14.542,-10.554c0,-4.758 -4.571,-8.296 -10.425,-8.296Zm-23.871,-0.258c-2.25,1.804 -3.408,4.317 -3.408,6.95c0,6.496 5.146,12.096 20.267,12.221c-3.475,-2.829 -5.725,-6.558 -5.725,-10.358c0,-7.208 4.438,-11.446 12.737,-11.446c7.463,0 12.871,5.142 12.871,11.254c0,8.237 -6.95,13.45 -19.433,13.45c-17.246,0 -23.229,-7.208 -23.229,-15.121c0,-3.863 1.612,-6.567 3.992,-8.688l1.929,1.738Z" style="fill-rule:nonzero;"/><path d="M95.646,531.054l0,21.683l-2.508,0l0,-25.283l1.671,0c13.063,9.842 23.358,12.288 39.442,12.929l0,3.092c-16.6,-0.646 -27.021,-4.121 -38.604,-12.421Z" style="fill-rule:nonzero;"/><path d="M103.175,369.396c-4.571,0 -8.429,3.087 -8.429,8.433c0,4.563 3.217,7.913 7.658,7.913c5.854,0 8.171,-5.533 10.292,-10.942c-2.829,-3.471 -5.983,-5.404 -9.521,-5.404Zm29.467,8.433c0,-5.796 -3.733,-9.592 -8.429,-9.592c-6.304,0 -8.492,6.175 -11,12.55c2.442,4.183 5.854,7.271 10.358,7.271c5.083,0 9.071,-4.313 9.071,-10.229Zm-20.525,4.821l-0.258,0c-1.992,3.025 -5.083,5.921 -9.454,5.921c-5.921,0 -10.042,-4.762 -10.042,-10.742c0,-7.017 4.571,-11.133 10.75,-11.133c4.5,0 8.492,3.475 10.421,5.854l0.258,0c2.183,-3.542 4.95,-7.204 10.487,-7.204c5.983,0 10.746,5.017 10.746,12.483c-0,7.525 -4.825,13.054 -11.325,13.054c-5.533,0 -9.525,-4.371 -11.583,-8.233Z" style="fill-rule:nonzero;"/><path d="M109.288,206.842c-8.687,0.517 -14.479,3.925 -14.479,10.612c0,4.7 4.504,8.304 10.362,8.304c5.983,0 10.358,-2.637 10.358,-8.946c0,-2.892 -1.804,-6.625 -6.242,-9.971Zm19.817,19.175c2.25,-1.8 3.408,-4.312 3.408,-7.012c0,-6.5 -5.146,-12.1 -20.267,-12.225c3.408,2.829 5.663,6.558 5.663,10.421c0,7.142 -4.442,11.388 -12.738,11.388c-7.467,0 -12.808,-5.146 -12.808,-11.258c0,-8.171 6.888,-13.383 19.367,-13.383c17.246,0 23.296,7.142 23.296,15.121c0,3.796 -1.612,6.625 -3.992,8.683l-1.929,-1.733Z" style="fill-rule:nonzero;"/><path d="M131.742,79.254l0,-9.654l-34.1,0l0,7.337l-1.929,0c-0.579,-3.35 -1.483,-5.987 -2.575,-7.917l0,-2.317l38.604,0l0,-8.946l2.508,0l0,21.496l-2.508,0Z" style="fill:#ed3915;fill-rule:nonzero;"/><path d="M113.533,29.067c-12.546,0 -18.725,3.662 -18.725,9.392c0,5.662 6.179,9.392 18.725,9.392c12.546,0 19.046,-3.729 19.046,-9.392c0,-5.729 -6.5,-9.392 -19.046,-9.392Zm0,21.683c-13.642,0 -21.171,-4.442 -21.171,-12.292c0,-7.846 7.529,-12.288 21.171,-12.288c13.704,0 21.492,4.442 21.492,12.288c0,7.85 -7.788,12.292 -21.492,12.292Z" style="fill:#ed3915;fill-rule:nonzero;"/></g></g><defs><linearGradient id="_Linear1" x1="0" y1="0" x2="1" y2="0" gradientUnits="userSpaceOnUse" gradientTransform="matrix(-230.773747,0.00001,-0.00001,-230.773747,228.173698,836.270833)"><stop offset="0" style="stop-color:#ffd11a;stop-opacity:1"/><stop offset="0.27" style="stop-color:#ffdf60;stop-opacity:1"/><stop offset="0.5" style="stop-color:#ffe477;stop-opacity:1"/><stop offset="0.73" style="stop-color:#ffdf60;stop-opacity:1"/><stop offset="1" style="stop-color:#ffd11a;stop-opacity:1"/></linearGradient><linearGradient id="_Linear2" x1="0" y1="0" x2="1" y2="0" gradientUnits="userSpaceOnUse" gradientTransform="matrix(-225.355827,90.931673,-90.931673,-225.355827,223.880859,1579.508333)"><stop offset="0" style="stop-color:#525252;stop-opacity:1"/><stop offset="0.3" style="stop-color:#666;stop-opacity:1"/><stop offset="0.69" style="stop-color:#717171;stop-opacity:1"/><stop offset="1" style="stop-color:#8e8e8e;stop-opacity:1"/></linearGradient><linearGradient id="_Linear3" x1="0" y1="0" x2="1" y2="0" gradientUnits="userSpaceOnUse" gradientTransform="matrix(0,-161.747917,161.747917,0,112.786719,1693.14375)"><stop offset="0" style="stop-color:#bfbfbf;stop-opacity:1"/><stop offset="0.23" style="stop-color:#e5e5e5;stop-opacity:1"/><stop offset="0.45" style="stop-color:#f9f9f9;stop-opacity:1"/><stop offset="0.7" style="stop-color:#eee;stop-opacity:1"/><stop offset="1" style="stop-color:#bfbfbf;stop-opacity:1"/></linearGradient><radialGradient id="_Radial4" cx="0" cy="0" r="1" gradientUnits="userSpaceOnUse" gradientTransform="matrix(0,-23.024959,23.024959,0,112.85,1563.859163)"><stop offset="0" style="stop-color:#b5b5b5;stop-opacity:1"/><stop offset="0.4" style="stop-color:#a7a7a7;stop-opacity:1"/><stop offset="0.85" style="stop-color:#808080;stop-opacity:1"/><stop offset="0.94" style="stop-color:#a2a2a2;stop-opacity:1"/><stop offset="1" style="stop-color:#acacac;stop-opacity:1"/></radialGradient><radialGradient id="_Radial5" cx="0" cy="0" r="1" gradientUnits="userSpaceOnUse" gradientTransform="matrix(0,-19.54821,19.54821,0,112.85,1562.015837)"><stop offset="0" style="stop-color:#efefef;stop-opacity:1"/><stop offset="0.4" style="stop-color:#e3e3e3;stop-opacity:1"/><stop offset="0.85" style="stop-color:#bfbfbf;stop-opacity:1"/><stop offset="1" style="stop-color:#ccc;stop-opacity:1"/></radialGradient><radialGradient id="_Radial6" cx="0" cy="0" r="1" gradientUnits="userSpaceOnUse" gradientTransform="matrix(0,-23.026542,23.026542,0,112.85,1636.87334)"><stop offset="0" style="stop-color:#b5b5b5;stop-opacity:1"/><stop offset="0.4" style="stop-color:#a7a7a7;stop-opacity:1"/><stop offset="0.85" style="stop-color:#808080;stop-opacity:1"/><stop offset="0.94" style="stop-color:#a2a2a2;stop-opacity:1"/><stop offset="1" style="stop-color:#acacac;stop-opacity:1"/></radialGradient><radialGradient id="_Radial7" cx="0" cy="0" r="1" gradientUnits="userSpaceOnUse" gradientTransform="matrix(0,-19.54979,19.54979,0,112.85,1635.029997)"><stop offset="0" style="stop-color:#efefef;stop-opacity:1"/><stop offset="0.4" style="stop-color:#e3e3e3;stop-opacity:1"/><stop offset="0.85" style="stop-color:#bfbfbf;stop-opacity:1"/><stop offset="1" style="stop-color:#ccc;stop-opacity:1"/></radialGradient></defs></svg>