<?xml version="1.0" encoding="UTF-8" standalone="no"?>
<svg xmlns="http://www.w3.org/2000/svg" width="420" height="280" viewBox="0 0 420 280">

<ellipse cx="215" cy="70" rx="140" ry="45" fill="none" stroke="#333" stroke-width="2"/>
<line x1="75.00" y1="70.00" x2="75.00" y2="210.00" stroke="#333" stroke-width="2" stroke-linecap="round" opacity="1.0"/>
<line x1="355.00" y1="70.00" x2="355.00" y2="210.00" stroke="#333" stroke-width="2" stroke-linecap="round" opacity="1.0"/>
<ellipse cx="215" cy="210" rx="140" ry="45" fill="none" stroke="#333" stroke-width="2"/>
<line x1="355.00" y1="70.00" x2="344.34" y2="87.22" stroke="#555" stroke-width="1.4" stroke-linecap="round" opacity="0.9"/>
<line x1="355.00" y1="70.00" x2="352.31" y2="96.28" stroke="#555" stroke-width="1.4" stroke-linecap="round" opacity="0.9"/>
<line x1="344.34" y1="87.22" x2="313.99" y2="101.82" stroke="#555" stroke-width="1.4" stroke-linecap="round" opacity="0.9"/>
<line x1="344.34" y1="87.22" x2="331.41" y2="112.50" stroke="#555" stroke-width="1.4" stroke-linecap="round" opacity="0.9"/>
<line x1="313.99" y1="101.82" x2="268.58" y2="111.57" stroke="#555" stroke-width="1.4" stroke-linecap="round" opacity="0.9"/>
<line x1="313.99" y1="101.82" x2="292.78" y2="124.92" stroke="#555" stroke-width="1.4" stroke-linecap="round" opacity="0.9"/>
<line x1="268.58" y1="111.57" x2="215.00" y2="115.00" stroke="#555" stroke-width="1.4" stroke-linecap="round" opacity="0.9"/>
<line x1="268.58" y1="111.57" x2="242.31" y2="131.64" stroke="#555" stroke-width="1.4" stroke-linecap="round" opacity="0.9"/>
<line x1="215.00" y1="115.00" x2="161.42" y2="111.57" stroke="#555" stroke-width="1.4" stroke-linecap="round" opacity="0.9"/>
<line x1="215.00" y1="115.00" x2="187.69" y2="131.64" stroke="#555" stroke-width="1.4" stroke-linecap="round" opacity="0.9"/>
<line x1="161.42" y1="111.57" x2="116.01" y2="101.82" stroke="#555" stroke-width="1.4" stroke-linecap="round" opacity="0.9"/>
<line x1="161.42" y1="111.57" x2="137.22" y2="124.92" stroke="#555" stroke-width="1.4" stroke-linecap="round" opacity="0.9"/>
<line x1="116.01" y1="101.82" x2="85.66" y2="87.22" stroke="#555" stroke-width="1.4" stroke-linecap="round" opacity="0.9"/>
<line x1="116.01" y1="101.82" x2="98.59" y2="112.50" stroke="#555" stroke-width="1.4" stroke-linecap="round" opacity="0.9"/>
<line x1="85.66" y1="87.22" x2="75.00" y2="70.00" stroke="#555" stroke-width="1.4" stroke-linecap="round" opacity="0.9"/>
<line x1="85.66" y1="87.22" x2="77.69" y2="96.28" stroke="#555" stroke-width="1.4" stroke-linecap="round" opacity="0.9"/>
<line x1="75.00" y1="70.00" x2="85.66" y2="52.78" stroke="#555" stroke-width="1.4" stroke-linecap="round" opacity="0.9"/>
<line x1="75.00" y1="70.00" x2="77.69" y2="78.72" stroke="#555" stroke-width="1.4" stroke-linecap="round" opacity="0.9"/>
<line x1="85.66" y1="52.78" x2="116.01" y2="38.18" stroke="#555" stroke-width="1.4" stroke-linecap="round" opacity="0.9"/>
<line x1="85.66" y1="52.78" x2="98.59" y2="62.50" stroke="#555" stroke-width="1.4" stroke-linecap="round" opacity="0.9"/>
<line x1="116.01" y1="38.18" x2="161.42" y2="28.43" stroke="#555" stroke-width="1.4" stroke-linecap="round" opacity="0.9"/>
<line x1="116.01" y1="38.18" x2="137.22" y2="50.08" stroke="#555" stroke-width="1.4" stroke-linecap="round" opacity="0.9"/>
<line x1="161.42" y1="28.43" x2="215.00" y2="25.00" stroke="#555" stroke-width="1.4" stroke-linecap="round" opacity="0.9"/>
<line x1="161.42" y1="28.43" x2="187.69" y2="43.36" stroke="#555" stroke-width="1.4" stroke-linecap="round" opacity="0.9"/>
<line x1="215.00" y1="25.00" x2="268.58" y2="28.43" stroke="#555" stroke-width="1.4" stroke-linecap="round" opacity="0.9"/>
<line x1="215.00" y1="25.00" x2="242.31" y2="43.36" stroke="#555" stroke-width="1.4" stroke-linecap="round" opacity="0.9"/>
<line x1="268.58" y1="28.43" x2="313.99" y2="38.18" stroke="#555" stroke-width="1.4" stroke-linecap="round" opacity="0.9"/>
<line x1="268.58" y1="28.43" x2="292.78" y2="50.08" stroke="#555" stroke-width="1.4" stroke-linecap="round" opacity="0.9"/>
<line x1="313.99" y1="38.18" x2="344.34" y2="52.78" stroke="#555" stroke-width="1.4" stroke-linecap="round" opacity="0.9"/>
<line x1="313.99" y1="38.18" x2="331.41" y2="62.50" stroke="#555" stroke-width="1.4" stroke-linecap="round" opacity="0.9"/>
<line x1="344.34" y1="52.78" x2="355.00" y2="70.00" stroke="#555" stroke-width="1.4" stroke-linecap="round" opacity="0.9"/>
<line x1="344.34" y1="52.78" x2="352.31" y2="78.72" stroke="#555" stroke-width="1.4" stroke-linecap="round" opacity="0.9"/>
<line x1="352.31" y1="96.28" x2="331.41" y2="112.50" stroke="#555" stroke-width="1.4" stroke-linecap="round" opacity="0.9"/>
<line x1="352.31" y1="96.28" x2="355.00" y2="105.00" stroke="#555" stroke-width="1.4" stroke-linecap="round" opacity="0.9"/>
<line x1="331.41" y1="112.50" x2="292.78" y2="124.92" stroke="#555" stroke-width="1.4" stroke-linecap="round" opacity="0.9"/>
<line x1="331.41" y1="112.50" x2="344.34" y2="122.22" stroke="#555" stroke-width="1.4" stroke-linecap="round" opacity="0.9"/>
<line x1="292.78" y1="124.92" x2="242.31" y2="131.64" stroke="#555" stroke-width="1.4" stroke-linecap="round" opacity="0.9"/>
<line x1="292.78" y1="124.92" x2="313.99" y2="136.82" stroke="#555" stroke-width="1.4" stroke-linecap="round" opacity="0.9"/>
<line x1="242.31" y1="131.64" x2="187.69" y2="131.64" stroke="#555" stroke-width="1.4" stroke-linecap="round" opacity="0.9"/>
<line x1="242.31" y1="131.64" x2="268.58" y2="146.57" stroke="#555" stroke-width="1.4" stroke-linecap="round" opacity="0.9"/>
<line x1="187.69" y1="131.64" x2="137.22" y2="124.92" stroke="#555" stroke-width="1.4" stroke-linecap="round" opacity="0.9"/>
<line x1="187.69" y1="131.64" x2="215.00" y2="150.00" stroke="#555" stroke-width="1.4" stroke-linecap="round" opacity="0.9"/>
<line x1="137.22" y1="124.92" x2="98.59" y2="112.50" stroke="#555" stroke-width="1.4" stroke-linecap="round" opacity="0.9"/>
<line x1="137.22" y1="124.92" x2="161.42" y2="146.57" stroke="#555" stroke-width="1.4" stroke-linecap="round" opacity="0.9"/>
<line x1="98.59" y1="112.50" x2="77.69" y2="96.28" stroke="#555" stroke-width="1.4" stroke-linecap="round" opacity="0.9"/>
<line x1="98.59" y1="112.50" x2="116.01" y2="136.82" stroke="#555" stroke-width="1.4" stroke-linecap="round" opacity="0.9"/>
<line x1="77.69" y1="96.28" x2="77.69" y2="78.72" stroke="#555" stroke-width="1.4" stroke-linecap="round" opacity="0.9"/>
<line x1="77.69" y1="96.28" x2="85.66" y2="122.22" stroke="#555" stroke-width="1.4" stroke-linecap="round" opacity="0.9"/>
<line x1="77.69" y1="78.72" x2="98.59" y2="62.50" stroke="#555" stroke-width="1.4" stroke-linecap="round" opacity="0.9"/>
<line x1="77.69" y1="78.72" x2="75.00" y2="105.00" stroke="#555" stroke-width="1.4" stroke-linecap="round" opacity="0.9"/>
<line x1="98.59" y1="62.50" x2="137.22" y2="50.08" stroke="#555" stroke-width="1.4" stroke-linecap="round" opacity="0.9"/>
<line x1="98.59" y1="62.50" x2="85.66" y2="87.78" stroke="#555" stroke-width="1.4" stroke-linecap="round" opacity="0.9"/>
<line x1="137.22" y1="50.08" x2="187.69" y2="43.36" stroke="#555" stroke-width="1.4" stroke-linecap="round" opacity="0.9"/>
<line x1="137.22" y1="50.08" x2="116.01" y2="73.18" stroke="#555" stroke-width="1.4" stroke-linecap="round" opacity="0.9"/>
<line x1="187.69" y1="43.36" x2="242.31" y2="43.36" stroke="#555" stroke-width="1.4" stroke-linecap="round" opacity="0.9"/>
<line x1="187.69" y1="43.36" x2="161.42" y2="63.43" stroke="#555" stroke-width="1.4" stroke-linecap="round" opacity="0.9"/>
<line x1="242.31" y1="43.36" x2="292.78" y2="50.08" stroke="#555" stroke-width="1.4" stroke-linecap="round" opacity="0.9"/>
<line x1="242.31" y1="43.36" x2="215.00" y2="60.00" stroke="#555" stroke-width="1.4" stroke-linecap="round" opacity="0.9"/>
<line x1="292.78" y1="50.08" x2="331.41" y2="62.50" stroke="#555" stroke-width="1.4" stroke-linecap="round" opacity="0.9"/>
<line x1="292.78" y1="50.08" x2="268.58" y2="63.43" stroke="#555" stroke-width="1.4" stroke-linecap="round" opacity="0.9"/>
<line x1="331.41" y1="62.50" x2="352.31" y2="78.72" stroke="#555" stroke-width="1.4" stroke-linecap="round" opacity="0.9"/>
<line x1="331.41" y1="62.50" x2="313.99" y2="73.18" stroke="#555" stroke-width="1.4" stroke-linecap="round" opacity="0.9"/>
<line x1="352.31" y1="78.72" x2="352.31" y2="96.28" stroke="#555" stroke-width="1.4" stroke-linecap="round" opacity="0.9"/>
<line x1="352.31" y1="78.72" x2="344.34" y2="87.78" stroke="#555" stroke-width="1.4" stroke-linecap="round" opacity="0.9"/>
<line x1="355.00" y1="105.00" x2="344.34" y2="122.22" stroke="#555" stroke-width="1.4" stroke-linecap="round" opacity="0.9"/>
<line x1="355.00" y1="105.00" x2="352.31" y2="131.28" stroke="#555" stroke-width="1.4" stroke-linecap="round" opacity="0.9"/>
<line x1="344.34" y1="122.22" x2="313.99" y2="136.82" stroke="#555" stroke-width="1.4" stroke-linecap="round" opacity="0.9"/>
<line x1="344.34" y1="122.22" x2="331.41" y2="147.50" stroke="#555" stroke-width="1.4" stroke-linecap="round" opacity="0.9"/>
<line x1="313.99" y1="136.82" x2="268.58" y2="146.57" stroke="#555" stroke-width="1.4" stroke-linecap="round" opacity="0.9"/>
<line x1="313.99" y1="136.82" x2="292.78" y2="159.92" stroke="#555" stroke-width="1.4" stroke-linecap="round" opacity="0.9"/>
<line x1="268.58" y1="146.57" x2="215.00" y2="150.00" stroke="#555" stroke-width="1.4" stroke-linecap="round" opacity="0.9"/>
<line x1="268.58" y1="146.57" x2="242.31" y2="166.64" stroke="#555" stroke-width="1.4" stroke-linecap="round" opacity="0.9"/>
<line x1="215.00" y1="150.00" x2="161.42" y2="146.57" stroke="#555" stroke-width="1.4" stroke-linecap="round" opacity="0.9"/>
<line x1="215.00" y1="150.00" x2="187.69" y2="166.64" stroke="#555" stroke-width="1.4" stroke-linecap="round" opacity="0.9"/>
<line x1="161.42" y1="146.57" x2="116.01" y2="136.82" stroke="#555" stroke-width="1.4" stroke-linecap="round" opacity="0.9"/>
<line x1="161.42" y1="146.57" x2="137.22" y2="159.92" stroke="#555" stroke-width="1.4" stroke-linecap="round" opacity="0.9"/>
<line x1="116.01" y1="136.82" x2="85.66" y2="122.22" stroke="#555" stroke-width="1.4" stroke-linecap="round" opacity="0.9"/>
<line x1="116.01" y1="136.82" x2="98.59" y2="147.50" stroke="#555" stroke-width="1.4" stroke-linecap="round" opacity="0.9"/>
<line x1="85.66" y1="122.22" x2="75.00" y2="105.00" stroke="#555" stroke-width="1.4" stroke-linecap="round" opacity="0.9"/>
<line x1="85.66" y1="122.22" x2="77.69" y2="131.28" stroke="#555" stroke-width="1.4" stroke-linecap="round" opacity="0.9"/>
<line x1="75.00" y1="105.00" x2="85.66" y2="87.78" stroke="#555" stroke-width="1.4" stroke-linecap="round" opacity="0.9"/>
<line x1="75.00" y1="105.00" x2="77.69" y2="113.72" stroke="#555" stroke-width="1.4" stroke-linecap="round" opacity="0.9"/>
<line x1="85.66" y1="87.78" x2="116.01" y2="73.18" stroke="#555" stroke-width="1.4" stroke-linecap="round" opacity="0.9"/>
<line x1="85.66" y1="87.78" x2="98.59" y2="97.50" stroke="#555" stroke-width="1.4" stroke-linecap="round" opacity="0.9"/>
<line x1="116.01" y1="73.18" x2="161.42" y2="63.43" stroke="#555" stroke-width="1.4" stroke-linecap="round" opacity="0.9"/>
<line x1="116.01" y1="73.18" x2="137.22" y2="85.08" stroke="#555" stroke-width="1.4" stroke-linecap="round" opacity="0.9"/>
<line x1="161.42" y1="63.43" x2="215.00" y2="60.00" stroke="#555" stroke-width="1.4" stroke-linecap="round" opacity="0.9"/>
<line x1="161.42" y1="63.43" x2="187.69" y2="78.36" stroke="#555" stroke-width="1.4" stroke-linecap="round" opacity="0.9"/>
<line x1="215.00" y1="60.00" x2="268.58" y2="63.43" stroke="#555" stroke-width="1.4" stroke-linecap="round" opacity="0.9"/>
<line x1="215.00" y1="60.00" x2="242.31" y2="78.36" stroke="#555" stroke-width="1.4" stroke-linecap="round" opacity="0.9"/>
<line x1="268.58" y1="63.43" x2="313.99" y2="73.18" stroke="#555" stroke-width="1.4" stroke-linecap="round" opacity="0.9"/>
<line x1="268.58" y1="63.43" x2="292.78" y2="85.08" stroke="#555" stroke-width="1.4" stroke-linecap="round" opacity="0.9"/>
<line x1="313.99" y1="73.18" x2="344.34" y2="87.78" stroke="#555" stroke-width="1.4" stroke-linecap="round" opacity="0.9"/>
<line x1="313.99" y1="73.18" x2="331.41" y2="97.50" stroke="#555" stroke-width="1.4" stroke-linecap="round" opacity="0.9"/>
<line x1="344.34" y1="87.78" x2="355.00" y2="105.00" stroke="#555" stroke-width="1.4" stroke-linecap="round" opacity="0.9"/>
<line x1="344.34" y1="87.78" x2="352.31" y2="113.72" stroke="#555" stroke-width="1.4" stroke-linecap="round" opacity="0.9"/>
<line x1="352.31" y1="131.28" x2="331.41" y2="147.50" stroke="#555" stroke-width="1.4" stroke-linecap="round" opacity="0.9"/>
<line x1="352.31" y1="131.28" x2="355.00" y2="140.00" stroke="#555" stroke-width="1.4" stroke-linecap="round" opacity="0.9"/>
<line x1="331.41" y1="147.50" x2="292.78" y2="159.92" stroke="#555" stroke-width="1.4" stroke-linecap="round" opacity="0.9"/>
<line x1="331.41" y1="147.50" x2="344.34" y2="157.22" stroke="#555" stroke-width="1.4" stroke-linecap="round" opacity="0.9"/>
<line x1="292.78" y1="159.92" x2="242.31" y2="166.64" stroke="#555" stroke-width="1.4" stroke-linecap="round" opacity="0.9"/>
<line x1="292.78" y1="159.92" x2="313.99" y2="171.82" stroke="#555" stroke-width="1.4" stroke-linecap="round" opacity="0.9"/>
<line x1="242.31" y1="166.64" x2="187.69" y2="166.64" stroke="#555" stroke-width="1.4" stroke-linecap="round" opacity="0.9"/>
<line x1="242.31" y1="166.64" x2="268.58" y2="181.57" stroke="#555" stroke-width="1.4" stroke-linecap="round" opacity="0.9"/>
<line x1="187.69" y1="166.64" x2="137.22" y2="159.92" stroke="#555" stroke-width="1.4" stroke-linecap="round" opacity="0.9"/>
<line x1="187.69" y1="166.64" x2="215.00" y2="185.00" stroke="#555" stroke-width="1.4" stroke-linecap="round" opacity="0.9"/>
<line x1="137.22" y1="159.92" x2="98.59" y2="147.50" stroke="#555" stroke-width="1.4" stroke-linecap="round" opacity="0.9"/>
<line x1="137.22" y1="159.92" x2="161.42" y2="181.57" stroke="#555" stroke-width="1.4" stroke-linecap="round" opacity="0.9"/>
<line x1="98.59" y1="147.50" x2="77.69" y2="131.28" stroke="#555" stroke-width="1.4" stroke-linecap="round" opacity="0.9"/>
<line x1="98.59" y1="147.50" x2="116.01" y2="171.82" stroke="#555" stroke-width="1.4" stroke-linecap="round" opacity="0.9"/>
<line x1="77.69" y1="131.28" x2="77.69" y2="113.72" stroke="#555" stroke-width="1.4" stroke-linecap="round" opacity="0.9"/>
<line x1="77.69" y1="131.28" x2="85.66" y2="157.22" stroke="#555" stroke-width="1.4" stroke-linecap="round" opacity="0.9"/>
<line x1="77.69" y1="113.72" x2="98.59" y2="97.50" stroke="#555" stroke-width="1.4" stroke-linecap="round" opacity="0.9"/>
<line x1="77.69" y1="113.72" x2="75.00" y2="140.00" stroke="#555" stroke-width="1.4" stroke-linecap="round" opacity="0.9"/>
<line x1="98.59" y1="97.50" x2="137.22" y2="85.08" stroke="#555" stroke-width="1.4" stroke-linecap="round" opacity="0.9"/>
<line x1="98.59" y1="97.50" x2="85.66" y2="122.78" stroke="#555" stroke-width="1.4" stroke-linecap="round" opacity="0.9"/>
<line x1="137.22" y1="85.08" x2="187.69" y2="78.36" stroke="#555" stroke-width="1.4" stroke-linecap="round" opacity="0.9"/>
<line x1="137.22" y1="85.08" x2="116.01" y2="108.18" stroke="#555" stroke-width="1.4" stroke-linecap="round" opacity="0.9"/>
<line x1="187.69" y1="78.36" x2="242.31" y2="78.36" stroke="#555" stroke-width="1.4" stroke-linecap="round" opacity="0.9"/>
<line x1="187.69" y1="78.36" x2="161.42" y2="98.43" stroke="#555" stroke-width="1.4" stroke-linecap="round" opacity="0.9"/>
<line x1="242.31" y1="78.36" x2="292.78" y2="85.08" stroke="#555" stroke-width="1.4" stroke-linecap="round" opacity="0.9"/>
<line x1="242.31" y1="78.36" x2="215.00" y2="95.00" stroke="#555" stroke-width="1.4" stroke-linecap="round" opacity="0.9"/>
<line x1="292.78" y1="85.08" x2="331.41" y2="97.50" stroke="#555" stroke-width="1.4" stroke-linecap="round" opacity="0.9"/>
<line x1="292.78" y1="85.08" x2="268.58" y2="98.43" stroke="#555" stroke-width="1.4" stroke-linecap="round" opacity="0.9"/>
<line x1="331.41" y1="97.50" x2="352.31" y2="113.72" stroke="#555" stroke-width="1.4" stroke-linecap="round" opacity="0.9"/>
<line x1="331.41" y1="97.50" x2="313.99" y2="108.18" stroke="#555" stroke-width="1.4" stroke-linecap="round" opacity="0.9"/>
<line x1="352.31" y1="113.72" x2="352.31" y2="131.28" stroke="#555" stroke-width="1.4" stroke-linecap="round" opacity="0.9"/>
<line x1="352.31" y1="113.72" x2="344.34" y2="122.78" stroke="#555" stroke-width="1.4" stroke-linecap="round" opacity="0.9"/>
<line x1="355.00" y1="140.00" x2="344.34" y2="157.22" stroke="#555" stroke-width="1.4" stroke-linecap="round" opacity="0.9"/>
<line x1="355.00" y1="140.00" x2="352.31" y2="166.28" stroke="#555" stroke-width="1.4" stroke-linecap="round" opacity="0.9"/>
<line x1="344.34" y1="157.22" x2="313.99" y2="171.82" stroke="#555" stroke-width="1.4" stroke-linecap="round" opacity="0.9"/>
<line x1="344.34" y1="157.22" x2="331.41" y2="182.50" stroke="#555" stroke-width="1.4" stroke-linecap="round" opacity="0.9"/>
<line x1="313.99" y1="171.82" x2="268.58" y2="181.57" stroke="#555" stroke-width="1.4" stroke-linecap="round" opacity="0.9"/>
<line x1="313.99" y1="171.82" x2="292.78" y2="194.92" stroke="#555" stroke-width="1.4" stroke-linecap="round" opacity="0.9"/>
<line x1="268.58" y1="181.57" x2="215.00" y2="185.00" stroke="#555" stroke-width="1.4" stroke-linecap="round" opacity="0.9"/>
<line x1="268.58" y1="181.57" x2="242.31" y2="201.64" stroke="#555" stroke-width="1.4" stroke-linecap="round" opacity="0.9"/>
<line x1="215.00" y1="185.00" x2="161.42" y2="181.57" stroke="#555" stroke-width="1.4" stroke-linecap="round" opacity="0.9"/>
<line x1="215.00" y1="185.00" x2="187.69" y2="201.64" stroke="#555" stroke-width="1.4" stroke-linecap="round" opacity="0.9"/>
<line x1="161.42" y1="181.57" x2="116.01" y2="171.82" stroke="#555" stroke-width="1.4" stroke-linecap="round" opacity="0.9"/>
<line x1="161.42" y1="181.57" x2="137.22" y2="194.92" stroke="#555" stroke-width="1.4" stroke-linecap="round" opacity="0.9"/>
<line x1="116.01" y1="171.82" x2="85.66" y2="157.22" stroke="#555" stroke-width="1.4" stroke-linecap="round" opacity="0.9"/>
<line x1="116.01" y1="171.82" x2="98.59" y2="182.50" stroke="#555" stroke-width="1.4" stroke-linecap="round" opacity="0.9"/>
<line x1="85.66" y1="157.22" x2="75.00" y2="140.00" stroke="#555" stroke-width="1.4" stroke-linecap="round" opacity="0.9"/>
<line x1="85.66" y1="157.22" x2="77.69" y2="166.28" stroke="#555" stroke-width="1.4" stroke-linecap="round" opacity="0.9"/>
<line x1="75.00" y1="140.00" x2="85.66" y2="122.78" stroke="#555" stroke-width="1.4" stroke-linecap="round" opacity="0.9"/>
<line x1="75.00" y1="140.00" x2="77.69" y2="148.72" stroke="#555" stroke-width="1.4" stroke-linecap="round" opacity="0.9"/>
<line x1="85.66" y1="122.78" x2="116.01" y2="108.18" stroke="#555" stroke-width="1.4" stroke-linecap="round" opacity="0.9"/>
<line x1="85.66" y1="122.78" x2="98.59" y2="132.50" stroke="#555" stroke-width="1.4" stroke-linecap="round" opacity="0.9"/>
<line x1="116.01" y1="108.18" x2="161.42" y2="98.43" stroke="#555" stroke-width="1.4" stroke-linecap="round" opacity="0.9"/>
<line x1="116.01" y1="108.18" x2="137.22" y2="120.08" stroke="#555" stroke-width="1.4" stroke-linecap="round" opacity="0.9"/>
<line x1="161.42" y1="98.43" x2="215.00" y2="95.00" stroke="#555" stroke-width="1.4" stroke-linecap="round" opacity="0.9"/>
<line x1="161.42" y1="98.43" x2="187.69" y2="113.36" stroke="#555" stroke-width="1.4" stroke-linecap="round" opacity="0.9"/>
<line x1="215.00" y1="95.00" x2="268.58" y2="98.43" stroke="#555" stroke-width="1.4" stroke-linecap="round" opacity="0.9"/>
<line x1="215.00" y1="95.00" x2="242.31" y2="113.36" stroke="#555" stroke-width="1.4" stroke-linecap="round" opacity="0.9"/>
<line x1="268.58" y1="98.43" x2="313.99" y2="108.18" stroke="#555" stroke-width="1.4" stroke-linecap="round" opacity="0.9"/>
<line x1="268.58" y1="98.43" x2="292.78" y2="120.08" stroke="#555" stroke-width="1.4" stroke-linecap="round" opacity="0.9"/>
<line x1="313.99" y1="108.18" x2="344.34" y2="122.78" stroke="#555" stroke-width="1.4" stroke-linecap="round" opacity="0.9"/>
<line x1="313.99" y1="108.18" x2="331.41" y2="132.50" stroke="#555" stroke-width="1.4" stroke-linecap="round" opacity="0.9"/>
<line x1="344.34" y1="122.78" x2="355.00" y2="140.00" stroke="#555" stroke-width="1.4" stroke-linecap="round" opacity="0.9"/>
<line x1="344.34" y1="122.78" x2="352.31" y2="148.72" stroke="#555" stroke-width="1.4" stroke-linecap="round" opacity="0.9"/>
<line x1="352.31" y1="166.28" x2="331.41" y2="182.50" stroke="#555" stroke-width="1.4" stroke-linecap="round" opacity="0.9"/>
<line x1="352.31" y1="166.28" x2="355.00" y2="175.00" stroke="#555" stroke-width="1.4" stroke-linecap="round" opacity="0.9"/>
<line x1="331.41" y1="182.50" x2="292.78" y2="194.92" stroke="#555" stroke-width="1.4" stroke-linecap="round" opacity="0.9"/>
<line x1="331.41" y1="182.50" x2="344.34" y2="192.22" stroke="#555" stroke-width="1.4" stroke-linecap="round" opacity="0.9"/>
<line x1="292.78" y1="194.92" x2="242.31" y2="201.64" stroke="#555" stroke-width="1.4" stroke-linecap="round" opacity="0.9"/>
<line x1="292.78" y1="194.92" x2="313.99" y2="206.82" stroke="#555" stroke-width="1.4" stroke-linecap="round" opacity="0.9"/>
<line x1="242.31" y1="201.64" x2="187.69" y2="201.64" stroke="#555" stroke-width="1.4" stroke-linecap="round" opacity="0.9"/>
<line x1="242.31" y1="201.64" x2="268.58" y2="216.57" stroke="#555" stroke-width="1.4" stroke-linecap="round" opacity="0.9"/>
<line x1="187.69" y1="201.64" x2="137.22" y2="194.92" stroke="#555" stroke-width="1.4" stroke-linecap="round" opacity="0.9"/>
<line x1="187.69" y1="201.64" x2="215.00" y2="220.00" stroke="#555" stroke-width="1.4" stroke-linecap="round" opacity="0.9"/>
<line x1="137.22" y1="194.92" x2="98.59" y2="182.50" stroke="#555" stroke-width="1.4" stroke-linecap="round" opacity="0.9"/>
<line x1="137.22" y1="194.92" x2="161.42" y2="216.57" stroke="#555" stroke-width="1.4" stroke-linecap="round" opacity="0.9"/>
<line x1="98.59" y1="182.50" x2="77.69" y2="166.28" stroke="#555" stroke-width="1.4" stroke-linecap="round" opacity="0.9"/>
<line x1="98.59" y1="182.50" x2="116.01" y2="206.82" stroke="#555" stroke-width="1.4" stroke-linecap="round" opacity="0.9"/>
<line x1="77.69" y1="166.28" x2="77.69" y2="148.72" stroke="#555" stroke-width="1.4" stroke-linecap="round" opacity="0.9"/>
<line x1="77.69" y1="166.28" x2="85.66" y2="192.22" stroke="#555" stroke-width="1.4" stroke-linecap="round" opacity="0.9"/>
<line x1="77.69" y1="148.72" x2="98.59" y2="132.50" stroke="#555" stroke-width="1.4" stroke-linecap="round" opacity="0.9"/>
<line x1="77.69" y1="148.72" x2="75.00" y2="175.00" stroke="#555" stroke-width="1.4" stroke-linecap="round" opacity="0.9"/>
<line x1="98.59" y1="132.50" x2="137.22" y2="120.08" stroke="#555" stroke-width="1.4" stroke-linecap="round" opacity="0.9"/>
<line x1="98.59" y1="132.50" x2="85.66" y2="157.78" stroke="#555" stroke-width="1.4" stroke-linecap="round" opacity="0.9"/>
<line x1="137.22" y1="120.08" x2="187.69" y2="113.36" stroke="#555" stroke-width="1.4" stroke-linecap="round" opacity="0.9"/>
<line x1="137.22" y1="120.08" x2="116.01" y2="143.18" stroke="#555" stroke-width="1.4" stroke-linecap="round" opacity="0.9"/>
<line x1="187.69" y1="113.36" x2="242.31" y2="113.36" stroke="#555" stroke-width="1.4" stroke-linecap="round" opacity="0.9"/>
<line x1="187.69" y1="113.36" x2="161.42" y2="133.43" stroke="#555" stroke-width="1.4" stroke-linecap="round" opacity="0.9"/>
<line x1="242.31" y1="113.36" x2="292.78" y2="120.08" stroke="#555" stroke-width="1.4" stroke-linecap="round" opacity="0.9"/>
<line x1="242.31" y1="113.36" x2="215.00" y2="130.00" stroke="#555" stroke-width="1.4" stroke-linecap="round" opacity="0.9"/>
<line x1="292.78" y1="120.08" x2="331.41" y2="132.50" stroke="#555" stroke-width="1.4" stroke-linecap="round" opacity="0.9"/>
<line x1="292.78" y1="120.08" x2="268.58" y2="133.43" stroke="#555" stroke-width="1.4" stroke-linecap="round" opacity="0.9"/>
<line x1="331.41" y1="132.50" x2="352.31" y2="148.72" stroke="#555" stroke-width="1.4" stroke-linecap="round" opacity="0.9"/>
<line x1="331.41" y1="132.50" x2="313.99" y2="143.18" stroke="#555" stroke-width="1.4" stroke-linecap="round" opacity="0.9"/>
<line x1="352.31" y1="148.72" x2="352.31" y2="166.28" stroke="#555" stroke-width="1.4" stroke-linecap="round" opacity="0.9"/>
<line x1="352.31" y1="148.72" x2="344.34" y2="157.78" stroke="#555" stroke-width="1.4" stroke-linecap="round" opacity="0.9"/>
<line x1="355.00" y1="175.00" x2="344.34" y2="192.22" stroke="#555" stroke-width="1.4" stroke-linecap="round" opacity="0.9"/>
<line x1="355.00" y1="175.00" x2="352.31" y2="201.28" stroke="#555" stroke-width="1.4" stroke-linecap="round" opacity="0.9"/>
<line x1="344.34" y1="192.22" x2="313.99" y2="206.82" stroke="#555" stroke-width="1.4" stroke-linecap="round" opacity="0.9"/>
<line x1="344.34" y1="192.22" x2="331.41" y2="217.50" stroke="#555" stroke-width="1.4" stroke-linecap="round" opacity="0.9"/>
<line x1="313.99" y1="206.82" x2="268.58" y2="216.57" stroke="#555" stroke-width="1.4" stroke-linecap="round" opacity="0.9"/>
<line x1="313.99" y1="206.82" x2="292.78" y2="229.92" stroke="#555" stroke-width="1.4" stroke-linecap="round" opacity="0.9"/>
<line x1="268.58" y1="216.57" x2="215.00" y2="220.00" stroke="#555" stroke-width="1.4" stroke-linecap="round" opacity="0.9"/>
<line x1="268.58" y1="216.57" x2="242.31" y2="236.64" stroke="#555" stroke-width="1.4" stroke-linecap="round" opacity="0.9"/>
<line x1="215.00" y1="220.00" x2="161.42" y2="216.57" stroke="#555" stroke-width="1.4" stroke-linecap="round" opacity="0.9"/>
<line x1="215.00" y1="220.00" x2="187.69" y2="236.64" stroke="#555" stroke-width="1.4" stroke-linecap="round" opacity="0.9"/>
<line x1="161.42" y1="216.57" x2="116.01" y2="206.82" stroke="#555" stroke-width="1.4" stroke-linecap="round" opacity="0.9"/>
<line x1="161.42" y1="216.57" x2="137.22" y2="229.92" stroke="#555" stroke-width="1.4" stroke-linecap="round" opacity="0.9"/>
<line x1="116.01" y1="206.82" x2="85.66" y2="192.22" stroke="#555" stroke-width="1.4" stroke-linecap="round" opacity="0.9"/>
<line x1="116.01" y1="206.82" x2="98.59" y2="217.50" stroke="#555" stroke-width="1.4" stroke-linecap="round" opacity="0.9"/>
<line x1="85.66" y1="192.22" x2="75.00" y2="175.00" stroke="#555" stroke-width="1.4" stroke-linecap="round" opacity="0.9"/>
<line x1="85.66" y1="192.22" x2="77.69" y2="201.28" stroke="#555" stroke-width="1.4" stroke-linecap="round" opacity="0.9"/>
<line x1="75.00" y1="175.00" x2="85.66" y2="157.78" stroke="#555" stroke-width="1.4" stroke-linecap="round" opacity="0.9"/>
<line x1="75.00" y1="175.00" x2="77.69" y2="183.72" stroke="#555" stroke-width="1.4" stroke-linecap="round" opacity="0.9"/>
<line x1="85.66" y1="157.78" x2="116.01" y2="143.18" stroke="#555" stroke-width="1.4" stroke-linecap="round" opacity="0.9"/>
<line x1="85.66" y1="157.78" x2="98.59" y2="167.50" stroke="#555" stroke-width="1.4" stroke-linecap="round" opacity="0.9"/>
<line x1="116.01" y1="143.18" x2="161.42" y2="133.43" stroke="#555" stroke-width="1.4" stroke-linecap="round" opacity="0.9"/>
<line x1="116.01" y1="143.18" x2="137.22" y2="155.08" stroke="#555" stroke-width="1.4" stroke-linecap="round" opacity="0.9"/>
<line x1="161.42" y1="133.43" x2="215.00" y2="130.00" stroke="#555" stroke-width="1.4" stroke-linecap="round" opacity="0.9"/>
<line x1="161.42" y1="133.43" x2="187.69" y2="148.36" stroke="#555" stroke-width="1.4" stroke-linecap="round" opacity="0.9"/>
<line x1="215.00" y1="130.00" x2="268.58" y2="133.43" stroke="#555" stroke-width="1.4" stroke-linecap="round" opacity="0.9"/>
<line x1="215.00" y1="130.00" x2="242.31" y2="148.36" stroke="#555" stroke-width="1.4" stroke-linecap="round" opacity="0.9"/>
<line x1="268.58" y1="133.43" x2="313.99" y2="143.18" stroke="#555" stroke-width="1.4" stroke-linecap="round" opacity="0.9"/>
<line x1="268.58" y1="133.43" x2="292.78" y2="155.08" stroke="#555" stroke-width="1.4" stroke-linecap="round" opacity="0.9"/>
<line x1="313.99" y1="143.18" x2="344.34" y2="157.78" stroke="#555" stroke-width="1.4" stroke-linecap="round" opacity="0.9"/>
<line x1="313.99" y1="143.18" x2="331.41" y2="167.50" stroke="#555" stroke-width="1.4" stroke-linecap="round" opacity="0.9"/>
<line x1="344.34" y1="157.78" x2="355.00" y2="175.00" stroke="#555" stroke-width="1.4" stroke-linecap="round" opacity="0.9"/>
<line x1="344.34" y1="157.78" x2="352.31" y2="183.72" stroke="#555" stroke-width="1.4" stroke-linecap="round" opacity="0.9"/>
<line x1="352.31" y1="201.28" x2="331.41" y2="217.50" stroke="#555" stroke-width="1.4" stroke-linecap="round" opacity="0.9"/>
<line x1="352.31" y1="201.28" x2="355.00" y2="210.00" stroke="#555" stroke-width="1.4" stroke-linecap="round" opacity="0.9"/>
<line x1="331.41" y1="217.50" x2="292.78" y2="229.92" stroke="#555" stroke-width="1.4" stroke-linecap="round" opacity="0.9"/>
<line x1="331.41" y1="217.50" x2="344.34" y2="227.22" stroke="#555" stroke-width="1.4" stroke-linecap="round" opacity="0.9"/>
<line x1="292.78" y1="229.92" x2="242.31" y2="236.64" stroke="#555" stroke-width="1.4" stroke-linecap="round" opacity="0.9"/>
<line x1="292.78" y1="229.92" x2="313.99" y2="241.82" stroke="#555" stroke-width="1.4" stroke-linecap="round" opacity="0.9"/>
<line x1="242.31" y1="236.64" x2="187.69" y2="236.64" stroke="#555" stroke-width="1.4" stroke-linecap="round" opacity="0.9"/>
<line x1="242.31" y1="236.64" x2="268.58" y2="251.57" stroke="#555" stroke-width="1.4" stroke-linecap="round" opacity="0.9"/>
<line x1="187.69" y1="236.64" x2="137.22" y2="229.92" stroke="#555" stroke-width="1.4" stroke-linecap="round" opacity="0.9"/>
<line x1="187.69" y1="236.64" x2="215.00" y2="255.00" stroke="#555" stroke-width="1.4" stroke-linecap="round" opacity="0.9"/>
<line x1="137.22" y1="229.92" x2="98.59" y2="217.50" stroke="#555" stroke-width="1.4" stroke-linecap="round" opacity="0.9"/>
<line x1="137.22" y1="229.92" x2="161.42" y2="251.57" stroke="#555" stroke-width="1.4" stroke-linecap="round" opacity="0.9"/>
<line x1="98.59" y1="217.50" x2="77.69" y2="201.28" stroke="#555" stroke-width="1.4" stroke-linecap="round" opacity="0.9"/>
<line x1="98.59" y1="217.50" x2="116.01" y2="241.82" stroke="#555" stroke-width="1.4" stroke-linecap="round" opacity="0.9"/>
<line x1="77.69" y1="201.28" x2="77.69" y2="183.72" stroke="#555" stroke-width="1.4" stroke-linecap="round" opacity="0.9"/>
<line x1="77.69" y1="201.28" x2="85.66" y2="227.22" stroke="#555" stroke-width="1.4" stroke-linecap="round" opacity="0.9"/>
<line x1="77.69" y1="183.72" x2="98.59" y2="167.50" stroke="#555" stroke-width="1.4" stroke-linecap="round" opacity="0.9"/>
<line x1="77.69" y1="183.72" x2="75.00" y2="210.00" stroke="#555" stroke-width="1.4" stroke-linecap="round" opacity="0.9"/>
<line x1="98.59" y1="167.50" x2="137.22" y2="155.08" stroke="#555" stroke-width="1.4" stroke-linecap="round" opacity="0.9"/>
<line x1="98.59" y1="167.50" x2="85.66" y2="192.78" stroke="#555" stroke-width="1.4" stroke-linecap="round" opacity="0.9"/>
<line x1="137.22" y1="155.08" x2="187.69" y2="148.36" stroke="#555" stroke-width="1.4" stroke-linecap="round" opacity="0.9"/>
<line x1="137.22" y1="155.08" x2="116.01" y2="178.18" stroke="#555" stroke-width="1.4" stroke-linecap="round" opacity="0.9"/>
<line x1="187.69" y1="148.36" x2="242.31" y2="148.36" stroke="#555" stroke-width="1.4" stroke-linecap="round" opacity="0.9"/>
<line x1="187.69" y1="148.36" x2="161.42" y2="168.43" stroke="#555" stroke-width="1.4" stroke-linecap="round" opacity="0.9"/>
<line x1="242.31" y1="148.36" x2="292.78" y2="155.08" stroke="#555" stroke-width="1.4" stroke-linecap="round" opacity="0.9"/>
<line x1="242.31" y1="148.36" x2="215.00" y2="165.00" stroke="#555" stroke-width="1.4" stroke-linecap="round" opacity="0.9"/>
<line x1="292.78" y1="155.08" x2="331.41" y2="167.50" stroke="#555" stroke-width="1.4" stroke-linecap="round" opacity="0.9"/>
<line x1="292.78" y1="155.08" x2="268.58" y2="168.43" stroke="#555" stroke-width="1.4" stroke-linecap="round" opacity="0.9"/>
<line x1="331.41" y1="167.50" x2="352.31" y2="183.72" stroke="#555" stroke-width="1.4" stroke-linecap="round" opacity="0.9"/>
<line x1="331.41" y1="167.50" x2="313.99" y2="178.18" stroke="#555" stroke-width="1.4" stroke-linecap="round" opacity="0.9"/>
<line x1="352.31" y1="183.72" x2="352.31" y2="201.28" stroke="#555" stroke-width="1.4" stroke-linecap="round" opacity="0.9"/>
<line x1="352.31" y1="183.72" x2="344.34" y2="192.78" stroke="#555" stroke-width="1.4" stroke-linecap="round" opacity="0.9"/>
<line x1="355.00" y1="210.00" x2="344.34" y2="227.22" stroke="#555" stroke-width="1.4" stroke-linecap="round" opacity="0.9"/>
<line x1="344.34" y1="227.22" x2="313.99" y2="241.82" stroke="#555" stroke-width="1.4" stroke-linecap="round" opacity="0.9"/>
<line x1="313.99" y1="241.82" x2="268.58" y2="251.57" stroke="#555" stroke-width="1.4" stroke-linecap="round" opacity="0.9"/>
<line x1="268.58" y1="251.57" x2="215.00" y2="255.00" stroke="#555" stroke-width="1.4" stroke-linecap="round" opacity="0.9"/>
<line x1="215.00" y1="255.00" x2="161.42" y2="251.57" stroke="#555" stroke-width="1.4" stroke-linecap="round" opacity="0.9"/>
<line x1="161.42" y1="251.57" x2="116.01" y2="241.82" stroke="#555" stroke-width="1.4" stroke-linecap="round" opacity="0.9"/>
<line x1="116.01" y1="241.82" x2="85.66" y2="227.22" stroke="#555" stroke-width="1.4" stroke-linecap="round" opacity="0.9"/>
<line x1="85.66" y1="227.22" x2="75.00" y2="210.00" stroke="#555" stroke-width="1.4" stroke-linecap="round" opacity="0.9"/>
<line x1="75.00" y1="210.00" x2="85.66" y2="192.78" stroke="#555" stroke-width="1.4" stroke-linecap="round" opacity="0.9"/>
<line x1="85.66" y1="192.78" x2="116.01" y2="178.18" stroke="#555" stroke-width="1.4" stroke-linecap="round" opacity="0.9"/>
<line x1="116.01" y1="178.18" x2="161.42" y2="168.43" stroke="#555" stroke-width="1.4" stroke-linecap="round" opacity="0.9"/>
<line x1="161.42" y1="168.43" x2="215.00" y2="165.00" stroke="#555" stroke-width="1.4" stroke-linecap="round" opacity="0.9"/>
<line x1="215.00" y1="165.00" x2="268.58" y2="168.43" stroke="#555" stroke-width="1.4" stroke-linecap="round" opacity="0.9"/>
<line x1="268.58" y1="168.43" x2="313.99" y2="178.18" stroke="#555" stroke-width="1.4" stroke-linecap="round" opacity="0.9"/>
<line x1="313.99" y1="178.18" x2="344.34" y2="192.78" stroke="#555" stroke-width="1.4" stroke-linecap="round" opacity="0.9"/>
<line x1="344.34" y1="192.78" x2="355.00" y2="210.00" stroke="#555" stroke-width="1.4" stroke-linecap="round" opacity="0.9"/>
<circle cx="355.00" cy="70.00" r="3.20" fill="#1179c9" stroke="#0b4f87" stroke-width="0.8"/>
<circle cx="313.99" cy="101.82" r="3.20" fill="#1179c9" stroke="#0b4f87" stroke-width="0.8"/>
<circle cx="215.00" cy="115.00" r="3.20" fill="#1179c9" stroke="#0b4f87" stroke-width="0.8"/>
<circle cx="116.01" cy="101.82" r="3.20" fill="#1179c9" stroke="#0b4f87" stroke-width="0.8"/>
<circle cx="75.00" cy="70.00" r="3.20" fill="#1179c9" stroke="#0b4f87" stroke-width="0.8"/>
<circle cx="116.01" cy="38.18" r="3.20" fill="#1179c9" stroke="#0b4f87" stroke-width="0.8"/>
<circle cx="215.00" cy="25.00" r="3.20" fill="#1179c9" stroke="#0b4f87" stroke-width="0.8"/>
<circle cx="313.99" cy="38.18" r="3.20" fill="#1179c9" stroke="#0b4f87" stroke-width="0.8"/>
<circle cx="352.31" cy="96.28" r="3.20" fill="#1179c9" stroke="#0b4f87" stroke-width="0.8"/>
<circle cx="292.78" cy="124.92" r="3.20" fill="#1179c9" stroke="#0b4f87" stroke-width="0.8"/>
<circle cx="187.69" cy="131.64" r="3.20" fill="#1179c9" stroke="#0b4f87" stroke-width="0.8"/>
<circle cx="98.59" cy="112.50" r="3.20" fill="#1179c9" stroke="#0b4f87" stroke-width="0.8"/>
<circle cx="77.69" cy="78.72" r="3.20" fill="#1179c9" stroke="#0b4f87" stroke-width="0.8"/>
<circle cx="137.22" cy="50.08" r="3.20" fill="#1179c9" stroke="#0b4f87" stroke-width="0.8"/>
<circle cx="242.31" cy="43.36" r="3.20" fill="#1179c9" stroke="#0b4f87" stroke-width="0.8"/>
<circle cx="331.41" cy="62.50" r="3.20" fill="#1179c9" stroke="#0b4f87" stroke-width="0.8"/>
<circle cx="355.00" cy="105.00" r="3.20" fill="#1179c9" stroke="#0b4f87" stroke-width="0.8"/>
<circle cx="313.99" cy="136.82" r="3.20" fill="#1179c9" stroke="#0b4f87" stroke-width="0.8"/>
<circle cx="215.00" cy="150.00" r="3.20" fill="#1179c9" stroke="#0b4f87" stroke-width="0.8"/>
<circle cx="116.01" cy="136.82" r="3.20" fill="#1179c9" stroke="#0b4f87" stroke-width="0.8"/>
<circle cx="75.00" cy="105.00" r="3.20" fill="#1179c9" stroke="#0b4f87" stroke-width="0.8"/>
<circle cx="116.01" cy="73.18" r="3.20" fill="#1179c9" stroke="#0b4f87" stroke-width="0.8"/>
<circle cx="215.00" cy="60.00" r="3.20" fill="#1179c9" stroke="#0b4f87" stroke-width="0.8"/>
<circle cx="313.99" cy="73.18" r="3.20" fill="#1179c9" stroke="#0b4f87" stroke-width="0.8"/>
<circle cx="352.31" cy="131.28" r="3.20" fill="#1179c9" stroke="#0b4f87" stroke-width="0.8"/>
<circle cx="292.78" cy="159.92" r="3.20" fill="#1179c9" stroke="#0b4f87" stroke-width="0.8"/>
<circle cx="187.69" cy="166.64" r="3.20" fill="#1179c9" stroke="#0b4f87" stroke-width="0.8"/>
<circle cx="98.59" cy="147.50" r="3.20" fill="#1179c9" stroke="#0b4f87" stroke-width="0.8"/>
<circle cx="77.69" cy="113.72" r="3.20" fill="#1179c9" stroke="#0b4f87" stroke-width="0.8"/>
<circle cx="137.22" cy="85.08" r="3.20" fill="#1179c9" stroke="#0b4f87" stroke-width="0.8"/>
<circle cx="242.31" cy="78.36" r="3.20" fill="#1179c9" stroke="#0b4f87" stroke-width="0.8"/>
<circle cx="331.41" cy="97.50" r="3.20" fill="#1179c9" stroke="#0b4f87" stroke-width="0.8"/>
<circle cx="355.00" cy="140.00" r="3.20" fill="#1179c9" stroke="#0b4f87" stroke-width="0.8"/>
<circle cx="313.99" cy="171.82" r="3.20" fill="#1179c9" stroke="#0b4f87" stroke-width="0.8"/>
<circle cx="215.00" cy="185.00" r="3.20" fill="#1179c9" stroke="#0b4f87" stroke-width="0.8"/>
<circle cx="116.01" cy="171.82" r="3.20" fill="#1179c9" stroke="#0b4f87" stroke-width="0.8"/>
<circle cx="75.00" cy="140.00" r="3.20" fill="#1179c9" stroke="#0b4f87" stroke-width="0.8"/>
<circle cx="116.01" cy="108.18" r="3.20" fill="#1179c9" stroke="#0b4f87" stroke-width="0.8"/>
<circle cx="215.00" cy="95.00" r="3.20" fill="#1179c9" stroke="#0b4f87" stroke-width="0.8"/>
<circle cx="313.99" cy="108.18" r="3.20" fill="#1179c9" stroke="#0b4f87" stroke-width="0.8"/>
<circle cx="352.31" cy="166.28" r="3.20" fill="#1179c9" stroke="#0b4f87" stroke-width="0.8"/>
<circle cx="292.78" cy="194.92" r="3.20" fill="#1179c9" stroke="#0b4f87" stroke-width="0.8"/>
<circle cx="187.69" cy="201.64" r="3.20" fill="#1179c9" stroke="#0b4f87" stroke-width="0.8"/>
<circle cx="98.59" cy="182.50" r="3.20" fill="#1179c9" stroke="#0b4f87" stroke-width="0.8"/>
<circle cx="77.69" cy="148.72" r="3.20" fill="#1179c9" stroke="#0b4f87" stroke-width="0.8"/>
<circle cx="137.22" cy="120.08" r="3.20" fill="#1179c9" stroke="#0b4f87" stroke-width="0.8"/>
<circle cx="242.31" cy="113.36" r="3.20" fill="#1179c9" stroke="#0b4f87" stroke-width="0.8"/>
<circle cx="331.41" cy="132.50" r="3.20" fill="#1179c9" stroke="#0b4f87" stroke-width="0.8"/>
<circle cx="355.00" cy="175.00" r="3.20" fill="#1179c9" stroke="#0b4f87" stroke-width="0.8"/>
<circle cx="313.99" cy="206.82" r="3.20" fill="#1179c9" stroke="#0b4f87" stroke-width="0.8"/>
<circle cx="215.00" cy="220.00" r="3.20" fill="#1179c9" stroke="#0b4f87" stroke-width="0.8"/>
<circle cx="116.01" cy="206.82" r="3.20" fill="#1179c9" stroke="#0b4f87" stroke-width="0.8"/>
<circle cx="75.00" cy="175.00" r="3.20" fill="#1179c9" stroke="#0b4f87" stroke-width="0.8"/>
<circle cx="116.01" cy="143.18" r="3.20" fill="#1179c9" stroke="#0b4f87" stroke-width="0.8"/>
<circle cx="215.00" cy="130.00" r="3.20" fill="#1179c9" stroke="#0b4f87" stroke-width="0.8"/>
<circle cx="313.99" cy="143.18" r="3.20" fill="#1179c9" stroke="#0b4f87" stroke-width="0.8"/>
<circle cx="352.31" cy="201.28" r="3.20" fill="#1179c9" stroke="#0b4f87" stroke-width="0.8"/>
<circle cx="292.78" cy="229.92" r="3.20" fill="#1179c9" stroke="#0b4f87" stroke-width="0.8"/>
<circle cx="187.69" cy="236.64" r="3.20" fill="#1179c9" stroke="#0b4f87" stroke-width="0.8"/>
<circle cx="98.59" cy="217.50" r="3.20" fill="#1179c9" stroke="#0b4f87" stroke-width="0.8"/>
<circle cx="77.69" cy="183.72" r="3.20" fill="#1179c9" stroke="#0b4f87" stroke-width="0.8"/>
<circle cx="137.22" cy="155.08" r="3.20" fill="#1179c9" stroke="#0b4f87" stroke-width="0.8"/>
<circle cx="242.31" cy="148.36" r="3.20" fill="#1179c9" stroke="#0b4f87" stroke-width="0.8"/>
<circle cx="331.41" cy="167.50" r="3.20" fill="#1179c9" stroke="#0b4f87" stroke-width="0.8"/>
<circle cx="355.00" cy="210.00" r="3.20" fill="#1179c9" stroke="#0b4f87" stroke-width="0.8"/>
<circle cx="313.99" cy="241.82" r="3.20" fill="#1179c9" stroke="#0b4f87" stroke-width="0.8"/>
<circle cx="215.00" cy="255.00" r="3.20" fill="#1179c9" stroke="#0b4f87" stroke-width="0.8"/>
<circle cx="116.01" cy="241.82" r="3.20" fill="#1179c9" stroke="#0b4f87" stroke-width="0.8"/>
<circle cx="75.00" cy="210.00" r="3.20" fill="#1179c9" stroke="#0b4f87" stroke-width="0.8"/>
<circle cx="116.01" cy="178.18" r="3.20" fill="#1179c9" stroke="#0b4f87" stroke-width="0.8"/>
<circle cx="215.00" cy="165.00" r="3.20" fill="#1179c9" stroke="#0b4f87" stroke-width="0.8"/>
<circle cx="313.99" cy="178.18" r="3.20" fill="#1179c9" stroke="#0b4f87" stroke-width="0.8"/>
</svg>
